<svg width="42" height="41" viewBox="0 0 42 41" fill="none" xmlns="http://www.w3.org/2000/svg">
<ellipse cx="20.6753" cy="20.1667" rx="6.66754" ry="6.16667" fill="#F8F8F8"/>
<path d="M26.0416 20.1667C26.0416 22.8617 23.6694 25.1 20.6742 25.1C17.6791 25.1 15.3068 22.8617 15.3068 20.1667C15.3068 17.4717 17.6791 15.2334 20.6742 15.2334C23.6694 15.2334 26.0416 17.4717 26.0416 20.1667Z" stroke="#64A3B0" stroke-width="0.822222"/>
<g filter="url(#filter0_dd)">
<ellipse cx="20.6743" cy="20.1666" rx="4.00052" ry="3.7" fill="#79D9EE"/>
<path d="M24.2637 20.1666C24.2637 21.9533 22.6875 23.4554 20.6743 23.4554C18.6611 23.4554 17.0849 21.9533 17.0849 20.1666C17.0849 18.3798 18.6611 16.8777 20.6743 16.8777C22.6875 16.8777 24.2637 18.3798 24.2637 20.1666Z" stroke="#64A3B0" stroke-width="0.822222"/>
</g>
<defs>
<filter id="filter0_dd" x="0.229353" y="0.0221081" width="40.8899" height="40.2889" filterUnits="userSpaceOnUse" color-interpolation-filters="sRGB">
<feFlood flood-opacity="0" result="BackgroundImageFix"/>
<feColorMatrix in="SourceAlpha" type="matrix" values="0 0 0 0 0 0 0 0 0 0 0 0 0 0 0 0 0 0 127 0" result="hardAlpha"/>
<feOffset/>
<feGaussianBlur stdDeviation="8.22222"/>
<feComposite in2="hardAlpha" operator="out"/>
<feColorMatrix type="matrix" values="0 0 0 0 0.129412 0 0 0 0 0.737255 0 0 0 0 0.627451 0 0 0 1 0"/>
<feBlend mode="normal" in2="BackgroundImageFix" result="effect1_dropShadow"/>
<feColorMatrix in="SourceAlpha" type="matrix" values="0 0 0 0 0 0 0 0 0 0 0 0 0 0 0 0 0 0 127 0" result="hardAlpha"/>
<feOffset/>
<feGaussianBlur stdDeviation="8.22222"/>
<feComposite in2="hardAlpha" operator="out"/>
<feColorMatrix type="matrix" values="0 0 0 0 0.129412 0 0 0 0 0.737255 0 0 0 0 0.627451 0 0 0 1 0"/>
<feBlend mode="normal" in2="effect1_dropShadow" result="effect2_dropShadow"/>
<feBlend mode="normal" in="SourceGraphic" in2="effect2_dropShadow" result="shape"/>
</filter>
</defs>
</svg>
