<svg width="87" height="15" viewBox="0 0 87 15" fill="none" xmlns="http://www.w3.org/2000/svg">
<path d="M10.918 10.85H4.222L2.836 14H0.982L6.688 1.4H8.47L14.194 14H12.304L10.918 10.85ZM10.288 9.41L7.57 3.236L4.852 9.41H10.288ZM24.7337 0.643999V14H23.0777V12.488C22.6937 13.016 22.2077 13.418 21.6197 13.694C21.0317 13.97 20.3837 14.108 19.6757 14.108C18.7517 14.108 17.9237 13.904 17.1917 13.496C16.4597 13.088 15.8837 12.518 15.4637 11.786C15.0557 11.042 14.8517 10.19 14.8517 9.23C14.8517 8.27 15.0557 7.424 15.4637 6.692C15.8837 5.96 16.4597 5.39 17.1917 4.982C17.9237 4.574 18.7517 4.37 19.6757 4.37C20.3597 4.37 20.9897 4.502 21.5657 4.766C22.1417 5.018 22.6217 5.396 23.0057 5.9V0.643999H24.7337ZM19.8197 12.596C20.4197 12.596 20.9657 12.458 21.4577 12.182C21.9497 11.894 22.3337 11.498 22.6097 10.994C22.8857 10.478 23.0237 9.89 23.0237 9.23C23.0237 8.57 22.8857 7.988 22.6097 7.484C22.3337 6.968 21.9497 6.572 21.4577 6.296C20.9657 6.02 20.4197 5.882 19.8197 5.882C19.2077 5.882 18.6557 6.02 18.1637 6.296C17.6837 6.572 17.2997 6.968 17.0117 7.484C16.7357 7.988 16.5977 8.57 16.5977 9.23C16.5977 9.89 16.7357 10.478 17.0117 10.994C17.2997 11.498 17.6837 11.894 18.1637 12.182C18.6557 12.458 19.2077 12.596 19.8197 12.596ZM37.0032 0.643999V14H35.3472V12.488C34.9632 13.016 34.4772 13.418 33.8892 13.694C33.3012 13.97 32.6532 14.108 31.9452 14.108C31.0212 14.108 30.1932 13.904 29.4612 13.496C28.7292 13.088 28.1532 12.518 27.7332 11.786C27.3252 11.042 27.1212 10.19 27.1212 9.23C27.1212 8.27 27.3252 7.424 27.7332 6.692C28.1532 5.96 28.7292 5.39 29.4612 4.982C30.1932 4.574 31.0212 4.37 31.9452 4.37C32.6292 4.37 33.2592 4.502 33.8352 4.766C34.4112 5.018 34.8912 5.396 35.2752 5.9V0.643999H37.0032ZM32.0892 12.596C32.6892 12.596 33.2352 12.458 33.7272 12.182C34.2192 11.894 34.6032 11.498 34.8792 10.994C35.1552 10.478 35.2932 9.89 35.2932 9.23C35.2932 8.57 35.1552 7.988 34.8792 7.484C34.6032 6.968 34.2192 6.572 33.7272 6.296C33.2352 6.02 32.6892 5.882 32.0892 5.882C31.4772 5.882 30.9252 6.02 30.4332 6.296C29.9532 6.572 29.5692 6.968 29.2812 7.484C29.0052 7.988 28.8672 8.57 28.8672 9.23C28.8672 9.89 29.0052 10.478 29.2812 10.994C29.5692 11.498 29.9532 11.894 30.4332 12.182C30.9252 12.458 31.4772 12.596 32.0892 12.596ZM41.9288 6.062C42.2288 5.51 42.6728 5.09 43.2608 4.802C43.8488 4.514 44.5628 4.37 45.4028 4.37V6.044C45.3068 6.032 45.1748 6.026 45.0068 6.026C44.0708 6.026 43.3328 6.308 42.7928 6.872C42.2648 7.424 42.0008 8.216 42.0008 9.248V14H40.2728V4.46H41.9288V6.062ZM56.0666 9.284C56.0666 9.416 56.0546 9.59 56.0306 9.806H48.2906C48.3986 10.646 48.7646 11.324 49.3886 11.84C50.0246 12.344 50.8106 12.596 51.7466 12.596C52.8866 12.596 53.8046 12.212 54.5006 11.444L55.4546 12.56C55.0226 13.064 54.4826 13.448 53.8346 13.712C53.1986 13.976 52.4846 14.108 51.6926 14.108C50.6846 14.108 49.7906 13.904 49.0106 13.496C48.2306 13.076 47.6246 12.494 47.1926 11.75C46.7726 11.006 46.5626 10.166 46.5626 9.23C46.5626 8.306 46.7666 7.472 47.1746 6.728C47.5946 5.984 48.1646 5.408 48.8846 5C49.6166 4.58 50.4386 4.37 51.3506 4.37C52.2626 4.37 53.0726 4.58 53.7806 5C54.5006 5.408 55.0586 5.984 55.4546 6.728C55.8626 7.472 56.0666 8.324 56.0666 9.284ZM51.3506 5.828C50.5226 5.828 49.8266 6.08 49.2626 6.584C48.7106 7.088 48.3866 7.748 48.2906 8.564H54.4106C54.3146 7.76 53.9846 7.106 53.4206 6.602C52.8686 6.086 52.1786 5.828 51.3506 5.828ZM61.2021 14.108C60.4221 14.108 59.6721 14.006 58.9521 13.802C58.2321 13.586 57.6681 13.316 57.2601 12.992L57.9801 11.624C58.4001 11.924 58.9101 12.164 59.5101 12.344C60.1101 12.524 60.7161 12.614 61.3281 12.614C62.8401 12.614 63.5961 12.182 63.5961 11.318C63.5961 11.03 63.4941 10.802 63.2901 10.634C63.0861 10.466 62.8281 10.346 62.5161 10.274C62.2161 10.19 61.7841 10.1 61.2201 10.004C60.4521 9.884 59.8221 9.746 59.3301 9.59C58.8501 9.434 58.4361 9.17 58.0881 8.798C57.7401 8.426 57.5661 7.904 57.5661 7.232C57.5661 6.368 57.9261 5.678 58.6461 5.162C59.3661 4.634 60.3321 4.37 61.5441 4.37C62.1801 4.37 62.8161 4.448 63.4521 4.604C64.0881 4.76 64.6101 4.97 65.0181 5.234L64.2801 6.602C63.5001 6.098 62.5821 5.846 61.5261 5.846C60.7941 5.846 60.2361 5.966 59.8521 6.206C59.4681 6.446 59.2761 6.764 59.2761 7.16C59.2761 7.472 59.3841 7.718 59.6001 7.898C59.8161 8.078 60.0801 8.21 60.3921 8.294C60.7161 8.378 61.1661 8.474 61.7421 8.582C62.5101 8.714 63.1281 8.858 63.5961 9.014C64.0761 9.158 64.4841 9.41 64.8201 9.77C65.1561 10.13 65.3241 10.634 65.3241 11.282C65.3241 12.146 64.9521 12.836 64.2081 13.352C63.4761 13.856 62.4741 14.108 61.2021 14.108ZM70.2197 14.108C69.4397 14.108 68.6897 14.006 67.9697 13.802C67.2497 13.586 66.6857 13.316 66.2777 12.992L66.9977 11.624C67.4177 11.924 67.9277 12.164 68.5277 12.344C69.1277 12.524 69.7337 12.614 70.3457 12.614C71.8577 12.614 72.6137 12.182 72.6137 11.318C72.6137 11.03 72.5117 10.802 72.3077 10.634C72.1037 10.466 71.8457 10.346 71.5337 10.274C71.2337 10.19 70.8017 10.1 70.2377 10.004C69.4697 9.884 68.8397 9.746 68.3477 9.59C67.8677 9.434 67.4537 9.17 67.1057 8.798C66.7577 8.426 66.5837 7.904 66.5837 7.232C66.5837 6.368 66.9437 5.678 67.6637 5.162C68.3837 4.634 69.3497 4.37 70.5617 4.37C71.1977 4.37 71.8337 4.448 72.4697 4.604C73.1057 4.76 73.6277 4.97 74.0357 5.234L73.2977 6.602C72.5177 6.098 71.5997 5.846 70.5437 5.846C69.8117 5.846 69.2537 5.966 68.8697 6.206C68.4857 6.446 68.2937 6.764 68.2937 7.16C68.2937 7.472 68.4017 7.718 68.6177 7.898C68.8337 8.078 69.0977 8.21 69.4097 8.294C69.7337 8.378 70.1837 8.474 70.7597 8.582C71.5277 8.714 72.1457 8.858 72.6137 9.014C73.0937 9.158 73.5017 9.41 73.8377 9.77C74.1737 10.13 74.3417 10.634 74.3417 11.282C74.3417 12.146 73.9697 12.836 73.2257 13.352C72.4937 13.856 71.4917 14.108 70.2197 14.108Z" fill="#F8F8F8"/>
<path d="M84.4133 3.992L86.5553 5.198L85.9973 6.188L83.8193 4.91L83.8373 7.358H82.7573L82.7753 4.91L80.5973 6.188L80.0393 5.198L82.1993 3.992L80.0393 2.804L80.5973 1.796L82.7753 3.074L82.7573 0.643999H83.8373L83.8193 3.074L85.9973 1.796L86.5553 2.804L84.4133 3.992Z" fill="#EB5757"/>
</svg>
