<svg width="166" height="18" viewBox="0 0 166 18" fill="none" xmlns="http://www.w3.org/2000/svg">
<path d="M0.89 1.4H6.2C7.532 1.4 8.714 1.664 9.746 2.192C10.778 2.72 11.576 3.464 12.14 4.424C12.716 5.372 13.004 6.464 13.004 7.7C13.004 8.936 12.716 10.034 12.14 10.994C11.576 11.942 10.778 12.68 9.746 13.208C8.714 13.736 7.532 14 6.2 14H0.89V1.4ZM6.092 12.434C7.112 12.434 8.006 12.236 8.774 11.84C9.554 11.444 10.154 10.892 10.574 10.184C10.994 9.464 11.204 8.636 11.204 7.7C11.204 6.764 10.994 5.942 10.574 5.234C10.154 4.514 9.554 3.956 8.774 3.56C8.006 3.164 7.112 2.966 6.092 2.966H2.69V12.434H6.092ZM18.9831 4.37C20.3031 4.37 21.3111 4.694 22.0071 5.342C22.7151 5.99 23.0691 6.956 23.0691 8.24V14H21.4311V12.74C21.1431 13.184 20.7291 13.526 20.1891 13.766C19.6611 13.994 19.0311 14.108 18.2991 14.108C17.2311 14.108 16.3731 13.85 15.7251 13.334C15.0891 12.818 14.7711 12.14 14.7711 11.3C14.7711 10.46 15.0771 9.788 15.6891 9.284C16.3011 8.768 17.2731 8.51 18.6051 8.51H21.3411V8.168C21.3411 7.424 21.1251 6.854 20.6931 6.458C20.2611 6.062 19.6251 5.864 18.7851 5.864C18.2211 5.864 17.6691 5.96 17.1291 6.152C16.5891 6.332 16.1331 6.578 15.7611 6.89L15.0411 5.594C15.5331 5.198 16.1211 4.898 16.8051 4.694C17.4891 4.478 18.2151 4.37 18.9831 4.37ZM18.5871 12.776C19.2471 12.776 19.8171 12.632 20.2971 12.344C20.7771 12.044 21.1251 11.624 21.3411 11.084V9.752H18.6771C17.2131 9.752 16.4811 10.244 16.4811 11.228C16.4811 11.708 16.6671 12.086 17.0391 12.362C17.4111 12.638 17.9271 12.776 18.5871 12.776ZM31.6309 13.442C31.3789 13.658 31.0669 13.826 30.6949 13.946C30.3229 14.054 29.9389 14.108 29.5429 14.108C28.5829 14.108 27.8389 13.85 27.3109 13.334C26.7829 12.818 26.5189 12.08 26.5189 11.12V5.882H24.8989V4.46H26.5189V2.372H28.2469V4.46H30.9829V5.882H28.2469V11.048C28.2469 11.564 28.3729 11.96 28.6249 12.236C28.8889 12.512 29.2609 12.65 29.7409 12.65C30.2689 12.65 30.7189 12.5 31.0909 12.2L31.6309 13.442ZM42.0256 9.284C42.0256 9.416 42.0136 9.59 41.9896 9.806H34.2496C34.3576 10.646 34.7236 11.324 35.3476 11.84C35.9836 12.344 36.7696 12.596 37.7056 12.596C38.8456 12.596 39.7636 12.212 40.4596 11.444L41.4136 12.56C40.9816 13.064 40.4416 13.448 39.7936 13.712C39.1576 13.976 38.4436 14.108 37.6516 14.108C36.6436 14.108 35.7496 13.904 34.9696 13.496C34.1896 13.076 33.5836 12.494 33.1516 11.75C32.7316 11.006 32.5216 10.166 32.5216 9.23C32.5216 8.306 32.7256 7.472 33.1336 6.728C33.5536 5.984 34.1236 5.408 34.8436 5C35.5756 4.58 36.3976 4.37 37.3096 4.37C38.2216 4.37 39.0316 4.58 39.7396 5C40.4596 5.408 41.0176 5.984 41.4136 6.728C41.8216 7.472 42.0256 8.324 42.0256 9.284ZM37.3096 5.828C36.4816 5.828 35.7856 6.08 35.2216 6.584C34.6696 7.088 34.3456 7.748 34.2496 8.564H40.3696C40.2736 7.76 39.9436 7.106 39.3796 6.602C38.8276 6.086 38.1376 5.828 37.3096 5.828ZM50.9151 6.062C51.2151 5.51 51.6591 5.09 52.2471 4.802C52.8351 4.514 53.5491 4.37 54.3891 4.37V6.044C54.2931 6.032 54.1611 6.026 53.9931 6.026C53.0571 6.026 52.3191 6.308 51.7791 6.872C51.2511 7.424 50.9871 8.216 50.9871 9.248V14H49.2591V4.46H50.9151V6.062ZM65.053 9.284C65.053 9.416 65.041 9.59 65.017 9.806H57.277C57.385 10.646 57.751 11.324 58.375 11.84C59.011 12.344 59.797 12.596 60.733 12.596C61.873 12.596 62.791 12.212 63.487 11.444L64.441 12.56C64.009 13.064 63.469 13.448 62.821 13.712C62.185 13.976 61.471 14.108 60.679 14.108C59.671 14.108 58.777 13.904 57.997 13.496C57.217 13.076 56.611 12.494 56.179 11.75C55.759 11.006 55.549 10.166 55.549 9.23C55.549 8.306 55.753 7.472 56.161 6.728C56.581 5.984 57.151 5.408 57.871 5C58.603 4.58 59.425 4.37 60.337 4.37C61.249 4.37 62.059 4.58 62.767 5C63.487 5.408 64.045 5.984 64.441 6.728C64.849 7.472 65.053 8.324 65.053 9.284ZM60.337 5.828C59.509 5.828 58.813 6.08 58.249 6.584C57.697 7.088 57.373 7.748 57.277 8.564H63.397C63.301 7.76 62.971 7.106 62.407 6.602C61.855 6.086 61.165 5.828 60.337 5.828ZM76.5785 4.46V12.704C76.5785 14.372 76.1645 15.602 75.3365 16.394C74.5085 17.198 73.2725 17.6 71.6285 17.6C70.7285 17.6 69.8705 17.474 69.0545 17.222C68.2385 16.982 67.5785 16.634 67.0745 16.178L67.9025 14.846C68.3465 15.23 68.8925 15.53 69.5405 15.746C70.2005 15.974 70.8785 16.088 71.5745 16.088C72.6905 16.088 73.5125 15.824 74.0405 15.296C74.5805 14.768 74.8505 13.964 74.8505 12.884V12.128C74.4425 12.62 73.9385 12.992 73.3385 13.244C72.7505 13.484 72.1085 13.604 71.4125 13.604C70.5005 13.604 69.6725 13.412 68.9285 13.028C68.1965 12.632 67.6205 12.086 67.2005 11.39C66.7805 10.682 66.5705 9.878 66.5705 8.978C66.5705 8.078 66.7805 7.28 67.2005 6.584C67.6205 5.876 68.1965 5.33 68.9285 4.946C69.6725 4.562 70.5005 4.37 71.4125 4.37C72.1325 4.37 72.7985 4.502 73.4105 4.766C74.0345 5.03 74.5445 5.42 74.9405 5.936V4.46H76.5785ZM71.6105 12.092C72.2345 12.092 72.7925 11.96 73.2845 11.696C73.7885 11.432 74.1785 11.066 74.4545 10.598C74.7425 10.118 74.8865 9.578 74.8865 8.978C74.8865 8.054 74.5805 7.31 73.9685 6.746C73.3565 6.17 72.5705 5.882 71.6105 5.882C70.6385 5.882 69.8465 6.17 69.2345 6.746C68.6225 7.31 68.3165 8.054 68.3165 8.978C68.3165 9.578 68.4545 10.118 68.7305 10.598C69.0185 11.066 69.4085 11.432 69.9005 11.696C70.4045 11.96 70.9745 12.092 71.6105 12.092ZM79.8802 4.46H81.6082V14H79.8802V4.46ZM80.7442 2.624C80.4082 2.624 80.1262 2.516 79.8982 2.3C79.6822 2.084 79.5742 1.82 79.5742 1.508C79.5742 1.196 79.6822 0.931999 79.8982 0.715999C80.1262 0.487999 80.4082 0.373999 80.7442 0.373999C81.0802 0.373999 81.3562 0.482 81.5722 0.698C81.8002 0.901999 81.9142 1.16 81.9142 1.472C81.9142 1.796 81.8002 2.072 81.5722 2.3C81.3562 2.516 81.0802 2.624 80.7442 2.624ZM87.6435 14.108C86.8635 14.108 86.1135 14.006 85.3935 13.802C84.6735 13.586 84.1095 13.316 83.7015 12.992L84.4215 11.624C84.8415 11.924 85.3515 12.164 85.9515 12.344C86.5515 12.524 87.1575 12.614 87.7695 12.614C89.2815 12.614 90.0375 12.182 90.0375 11.318C90.0375 11.03 89.9355 10.802 89.7315 10.634C89.5275 10.466 89.2695 10.346 88.9575 10.274C88.6575 10.19 88.2255 10.1 87.6615 10.004C86.8935 9.884 86.2635 9.746 85.7715 9.59C85.2915 9.434 84.8775 9.17 84.5295 8.798C84.1815 8.426 84.0075 7.904 84.0075 7.232C84.0075 6.368 84.3675 5.678 85.0875 5.162C85.8075 4.634 86.7735 4.37 87.9855 4.37C88.6215 4.37 89.2575 4.448 89.8935 4.604C90.5295 4.76 91.0515 4.97 91.4595 5.234L90.7215 6.602C89.9415 6.098 89.0235 5.846 87.9675 5.846C87.2355 5.846 86.6775 5.966 86.2935 6.206C85.9095 6.446 85.7175 6.764 85.7175 7.16C85.7175 7.472 85.8255 7.718 86.0415 7.898C86.2575 8.078 86.5215 8.21 86.8335 8.294C87.1575 8.378 87.6075 8.474 88.1835 8.582C88.9515 8.714 89.5695 8.858 90.0375 9.014C90.5175 9.158 90.9255 9.41 91.2615 9.77C91.5975 10.13 91.7655 10.634 91.7655 11.282C91.7655 12.146 91.3935 12.836 90.6495 13.352C89.9175 13.856 88.9155 14.108 87.6435 14.108ZM99.2891 13.442C99.0371 13.658 98.7251 13.826 98.3531 13.946C97.9811 14.054 97.5971 14.108 97.2011 14.108C96.2411 14.108 95.4971 13.85 94.9691 13.334C94.4411 12.818 94.1771 12.08 94.1771 11.12V5.882H92.5571V4.46H94.1771V2.372H95.9051V4.46H98.6411V5.882H95.9051V11.048C95.9051 11.564 96.0311 11.96 96.2831 12.236C96.5471 12.512 96.9191 12.65 97.3991 12.65C97.9271 12.65 98.3771 12.5 98.7491 12.2L99.2891 13.442ZM103.034 6.062C103.334 5.51 103.778 5.09 104.366 4.802C104.954 4.514 105.668 4.37 106.508 4.37V6.044C106.412 6.032 106.28 6.026 106.112 6.026C105.176 6.026 104.438 6.308 103.898 6.872C103.37 7.424 103.106 8.216 103.106 9.248V14H101.378V4.46H103.034V6.062ZM112.094 4.37C113.414 4.37 114.422 4.694 115.118 5.342C115.826 5.99 116.18 6.956 116.18 8.24V14H114.542V12.74C114.254 13.184 113.84 13.526 113.3 13.766C112.772 13.994 112.142 14.108 111.41 14.108C110.342 14.108 109.484 13.85 108.836 13.334C108.2 12.818 107.882 12.14 107.882 11.3C107.882 10.46 108.188 9.788 108.8 9.284C109.412 8.768 110.384 8.51 111.716 8.51H114.452V8.168C114.452 7.424 114.236 6.854 113.804 6.458C113.372 6.062 112.736 5.864 111.896 5.864C111.332 5.864 110.78 5.96 110.24 6.152C109.7 6.332 109.244 6.578 108.872 6.89L108.152 5.594C108.644 5.198 109.232 4.898 109.916 4.694C110.6 4.478 111.326 4.37 112.094 4.37ZM111.698 12.776C112.358 12.776 112.928 12.632 113.408 12.344C113.888 12.044 114.236 11.624 114.452 11.084V9.752H111.788C110.324 9.752 109.592 10.244 109.592 11.228C109.592 11.708 109.778 12.086 110.15 12.362C110.522 12.638 111.038 12.776 111.698 12.776ZM124.742 13.442C124.49 13.658 124.178 13.826 123.806 13.946C123.434 14.054 123.05 14.108 122.654 14.108C121.694 14.108 120.95 13.85 120.422 13.334C119.894 12.818 119.63 12.08 119.63 11.12V5.882H118.01V4.46H119.63V2.372H121.358V4.46H124.094V5.882H121.358V11.048C121.358 11.564 121.484 11.96 121.736 12.236C122 12.512 122.372 12.65 122.852 12.65C123.38 12.65 123.83 12.5 124.202 12.2L124.742 13.442ZM126.831 4.46H128.559V14H126.831V4.46ZM127.695 2.624C127.359 2.624 127.077 2.516 126.849 2.3C126.633 2.084 126.525 1.82 126.525 1.508C126.525 1.196 126.633 0.931999 126.849 0.715999C127.077 0.487999 127.359 0.373999 127.695 0.373999C128.031 0.373999 128.307 0.482 128.523 0.698C128.751 0.901999 128.865 1.16 128.865 1.472C128.865 1.796 128.751 2.072 128.523 2.3C128.307 2.516 128.031 2.624 127.695 2.624ZM135.945 14.108C134.997 14.108 134.145 13.898 133.389 13.478C132.633 13.058 132.039 12.482 131.607 11.75C131.187 11.006 130.977 10.166 130.977 9.23C130.977 8.294 131.187 7.46 131.607 6.728C132.039 5.984 132.633 5.408 133.389 5C134.145 4.58 134.997 4.37 135.945 4.37C136.893 4.37 137.739 4.58 138.483 5C139.239 5.408 139.827 5.984 140.247 6.728C140.679 7.46 140.895 8.294 140.895 9.23C140.895 10.166 140.679 11.006 140.247 11.75C139.827 12.482 139.239 13.058 138.483 13.478C137.739 13.898 136.893 14.108 135.945 14.108ZM135.945 12.596C136.557 12.596 137.103 12.458 137.583 12.182C138.075 11.894 138.459 11.498 138.735 10.994C139.011 10.478 139.149 9.89 139.149 9.23C139.149 8.57 139.011 7.988 138.735 7.484C138.459 6.968 138.075 6.572 137.583 6.296C137.103 6.02 136.557 5.882 135.945 5.882C135.333 5.882 134.781 6.02 134.289 6.296C133.809 6.572 133.425 6.968 133.137 7.484C132.861 7.988 132.723 8.57 132.723 9.23C132.723 9.89 132.861 10.478 133.137 10.994C133.425 11.498 133.809 11.894 134.289 12.182C134.781 12.458 135.333 12.596 135.945 12.596ZM148.378 4.37C149.59 4.37 150.55 4.724 151.258 5.432C151.978 6.128 152.338 7.154 152.338 8.51V14H150.61V8.708C150.61 7.784 150.388 7.088 149.944 6.62C149.5 6.152 148.864 5.918 148.036 5.918C147.1 5.918 146.362 6.194 145.822 6.746C145.282 7.286 145.012 8.066 145.012 9.086V14H143.284V4.46H144.94V5.9C145.288 5.408 145.756 5.03 146.344 4.766C146.944 4.502 147.622 4.37 148.378 4.37Z" fill="#F8F8F8"/>
<path d="M163.448 3.992L165.59 5.198L165.032 6.188L162.854 4.91L162.872 7.358H161.792L161.81 4.91L159.632 6.188L159.074 5.198L161.234 3.992L159.074 2.804L159.632 1.796L161.81 3.074L161.792 0.643999H162.872L162.854 3.074L165.032 1.796L165.59 2.804L163.448 3.992Z" fill="#EB5757"/>
</svg>
