<svg width="100" height="15" viewBox="0 0 100 15" fill="none" xmlns="http://www.w3.org/2000/svg">
<path d="M0.89 1.4H6.2C7.532 1.4 8.714 1.664 9.746 2.192C10.778 2.72 11.576 3.464 12.14 4.424C12.716 5.372 13.004 6.464 13.004 7.7C13.004 8.936 12.716 10.034 12.14 10.994C11.576 11.942 10.778 12.68 9.746 13.208C8.714 13.736 7.532 14 6.2 14H0.89V1.4ZM6.092 12.434C7.112 12.434 8.006 12.236 8.774 11.84C9.554 11.444 10.154 10.892 10.574 10.184C10.994 9.464 11.204 8.636 11.204 7.7C11.204 6.764 10.994 5.942 10.574 5.234C10.154 4.514 9.554 3.956 8.774 3.56C8.006 3.164 7.112 2.966 6.092 2.966H2.69V12.434H6.092ZM18.9831 4.37C20.3031 4.37 21.3111 4.694 22.0071 5.342C22.7151 5.99 23.0691 6.956 23.0691 8.24V14H21.4311V12.74C21.1431 13.184 20.7291 13.526 20.1891 13.766C19.6611 13.994 19.0311 14.108 18.2991 14.108C17.2311 14.108 16.3731 13.85 15.7251 13.334C15.0891 12.818 14.7711 12.14 14.7711 11.3C14.7711 10.46 15.0771 9.788 15.6891 9.284C16.3011 8.768 17.2731 8.51 18.6051 8.51H21.3411V8.168C21.3411 7.424 21.1251 6.854 20.6931 6.458C20.2611 6.062 19.6251 5.864 18.7851 5.864C18.2211 5.864 17.6691 5.96 17.1291 6.152C16.5891 6.332 16.1331 6.578 15.7611 6.89L15.0411 5.594C15.5331 5.198 16.1211 4.898 16.8051 4.694C17.4891 4.478 18.2151 4.37 18.9831 4.37ZM18.5871 12.776C19.2471 12.776 19.8171 12.632 20.2971 12.344C20.7771 12.044 21.1251 11.624 21.3411 11.084V9.752H18.6771C17.2131 9.752 16.4811 10.244 16.4811 11.228C16.4811 11.708 16.6671 12.086 17.0391 12.362C17.4111 12.638 17.9271 12.776 18.5871 12.776ZM31.6309 13.442C31.3789 13.658 31.0669 13.826 30.6949 13.946C30.3229 14.054 29.9389 14.108 29.5429 14.108C28.5829 14.108 27.8389 13.85 27.3109 13.334C26.7829 12.818 26.5189 12.08 26.5189 11.12V5.882H24.8989V4.46H26.5189V2.372H28.2469V4.46H30.9829V5.882H28.2469V11.048C28.2469 11.564 28.3729 11.96 28.6249 12.236C28.8889 12.512 29.2609 12.65 29.7409 12.65C30.2689 12.65 30.7189 12.5 31.0909 12.2L31.6309 13.442ZM42.0256 9.284C42.0256 9.416 42.0136 9.59 41.9896 9.806H34.2496C34.3576 10.646 34.7236 11.324 35.3476 11.84C35.9836 12.344 36.7696 12.596 37.7056 12.596C38.8456 12.596 39.7636 12.212 40.4596 11.444L41.4136 12.56C40.9816 13.064 40.4416 13.448 39.7936 13.712C39.1576 13.976 38.4436 14.108 37.6516 14.108C36.6436 14.108 35.7496 13.904 34.9696 13.496C34.1896 13.076 33.5836 12.494 33.1516 11.75C32.7316 11.006 32.5216 10.166 32.5216 9.23C32.5216 8.306 32.7256 7.472 33.1336 6.728C33.5536 5.984 34.1236 5.408 34.8436 5C35.5756 4.58 36.3976 4.37 37.3096 4.37C38.2216 4.37 39.0316 4.58 39.7396 5C40.4596 5.408 41.0176 5.984 41.4136 6.728C41.8216 7.472 42.0256 8.324 42.0256 9.284ZM37.3096 5.828C36.4816 5.828 35.7856 6.08 35.2216 6.584C34.6696 7.088 34.3456 7.748 34.2496 8.564H40.3696C40.2736 7.76 39.9436 7.106 39.3796 6.602C38.8276 6.086 38.1376 5.828 37.3096 5.828ZM54.3171 4.37C55.2411 4.37 56.0691 4.574 56.8011 4.982C57.5331 5.39 58.1031 5.96 58.5111 6.692C58.9311 7.424 59.1411 8.27 59.1411 9.23C59.1411 10.19 58.9311 11.042 58.5111 11.786C58.1031 12.518 57.5331 13.088 56.8011 13.496C56.0691 13.904 55.2411 14.108 54.3171 14.108C53.6091 14.108 52.9611 13.97 52.3731 13.694C51.7851 13.418 51.2991 13.016 50.9151 12.488V14H49.2591V0.643999H50.9871V5.9C51.3711 5.396 51.8511 5.018 52.4271 4.766C53.0031 4.502 53.6331 4.37 54.3171 4.37ZM54.1731 12.596C54.7851 12.596 55.3311 12.458 55.8111 12.182C56.3031 11.894 56.6871 11.498 56.9631 10.994C57.2511 10.478 57.3951 9.89 57.3951 9.23C57.3951 8.57 57.2511 7.988 56.9631 7.484C56.6871 6.968 56.3031 6.572 55.8111 6.296C55.3311 6.02 54.7851 5.882 54.1731 5.882C53.5731 5.882 53.0271 6.02 52.5351 6.296C52.0431 6.572 51.6591 6.968 51.3831 7.484C51.1071 7.988 50.9691 8.57 50.9691 9.23C50.9691 9.89 51.1071 10.478 51.3831 10.994C51.6591 11.498 52.0431 11.894 52.5351 12.182C53.0271 12.458 53.5731 12.596 54.1731 12.596ZM61.5286 4.46H63.2566V14H61.5286V4.46ZM62.3926 2.624C62.0566 2.624 61.7746 2.516 61.5466 2.3C61.3306 2.084 61.2226 1.82 61.2226 1.508C61.2226 1.196 61.3306 0.931999 61.5466 0.715999C61.7746 0.487999 62.0566 0.373999 62.3926 0.373999C62.7286 0.373999 63.0046 0.482 63.2206 0.698C63.4486 0.901999 63.5626 1.16 63.5626 1.472C63.5626 1.796 63.4486 2.072 63.2206 2.3C63.0046 2.516 62.7286 2.624 62.3926 2.624ZM68.212 6.062C68.512 5.51 68.956 5.09 69.544 4.802C70.132 4.514 70.846 4.37 71.686 4.37V6.044C71.59 6.032 71.458 6.026 71.29 6.026C70.354 6.026 69.616 6.308 69.076 6.872C68.548 7.424 68.284 8.216 68.284 9.248V14H66.556V4.46H68.212V6.062ZM79.5665 13.442C79.3145 13.658 79.0025 13.826 78.6305 13.946C78.2585 14.054 77.8745 14.108 77.4785 14.108C76.5185 14.108 75.7745 13.85 75.2465 13.334C74.7185 12.818 74.4545 12.08 74.4545 11.12V5.882H72.8345V4.46H74.4545V2.372H76.1825V4.46H78.9185V5.882H76.1825V11.048C76.1825 11.564 76.3085 11.96 76.5605 12.236C76.8245 12.512 77.1965 12.65 77.6765 12.65C78.2045 12.65 78.6545 12.5 79.0265 12.2L79.5665 13.442ZM86.7496 4.37C87.9616 4.37 88.9216 4.724 89.6296 5.432C90.3496 6.128 90.7096 7.154 90.7096 8.51V14H88.9816V8.708C88.9816 7.784 88.7596 7.088 88.3156 6.62C87.8716 6.152 87.2356 5.918 86.4076 5.918C85.4716 5.918 84.7336 6.194 84.1936 6.746C83.6536 7.286 83.3836 8.066 83.3836 9.086V14H81.6556V0.643999H83.3836V5.81C83.7436 5.354 84.2116 5 84.7876 4.748C85.3756 4.496 86.0296 4.37 86.7496 4.37Z" fill="#F8F8F8"/>
<path d="M96.9855 3.992L99.1275 5.198L98.5695 6.188L96.3915 4.91L96.4095 7.358H95.3295L95.3475 4.91L93.1695 6.188L92.6115 5.198L94.7715 3.992L92.6115 2.804L93.1695 1.796L95.3475 3.074L95.3295 0.643999H96.4095L96.3915 3.074L98.5695 1.796L99.1275 2.804L96.9855 3.992Z" fill="#EB5757"/>
</svg>
