<svg width="70" height="15" viewBox="0 0 70 15" fill="none" xmlns="http://www.w3.org/2000/svg">
<path d="M10.034 12.434V14H0.89V1.4H9.782V2.966H2.69V6.836H9.008V8.366H2.69V12.434H10.034ZM11.733 8.312H16.575V9.806H11.733V8.312ZM31.1697 4.37C32.3697 4.37 33.3177 4.718 34.0137 5.414C34.7217 6.11 35.0757 7.142 35.0757 8.51V14H33.3477V8.708C33.3477 7.784 33.1317 7.088 32.6997 6.62C32.2797 6.152 31.6737 5.918 30.8817 5.918C30.0057 5.918 29.3097 6.194 28.7937 6.746C28.2777 7.286 28.0197 8.066 28.0197 9.086V14H26.2917V8.708C26.2917 7.784 26.0757 7.088 25.6437 6.62C25.2237 6.152 24.6177 5.918 23.8257 5.918C22.9497 5.918 22.2537 6.194 21.7377 6.746C21.2217 7.286 20.9637 8.066 20.9637 9.086V14H19.2357V4.46H20.8917V5.882C21.2397 5.39 21.6957 5.018 22.2597 4.766C22.8237 4.502 23.4657 4.37 24.1857 4.37C24.9297 4.37 25.5897 4.52 26.1657 4.82C26.7417 5.12 27.1857 5.558 27.4977 6.134C27.8577 5.582 28.3557 5.15 28.9917 4.838C29.6397 4.526 30.3657 4.37 31.1697 4.37ZM41.7292 4.37C43.0492 4.37 44.0572 4.694 44.7532 5.342C45.4612 5.99 45.8152 6.956 45.8152 8.24V14H44.1772V12.74C43.8892 13.184 43.4752 13.526 42.9352 13.766C42.4072 13.994 41.7772 14.108 41.0452 14.108C39.9772 14.108 39.1192 13.85 38.4712 13.334C37.8352 12.818 37.5172 12.14 37.5172 11.3C37.5172 10.46 37.8232 9.788 38.4352 9.284C39.0472 8.768 40.0192 8.51 41.3512 8.51H44.0872V8.168C44.0872 7.424 43.8712 6.854 43.4392 6.458C43.0072 6.062 42.3712 5.864 41.5312 5.864C40.9672 5.864 40.4152 5.96 39.8752 6.152C39.3352 6.332 38.8792 6.578 38.5072 6.89L37.7872 5.594C38.2792 5.198 38.8672 4.898 39.5512 4.694C40.2352 4.478 40.9612 4.37 41.7292 4.37ZM41.3332 12.776C41.9932 12.776 42.5632 12.632 43.0432 12.344C43.5232 12.044 43.8712 11.624 44.0872 11.084V9.752H41.4232C39.9592 9.752 39.2272 10.244 39.2272 11.228C39.2272 11.708 39.4132 12.086 39.7852 12.362C40.1572 12.638 40.6732 12.776 41.3332 12.776ZM49.013 4.46H50.741V14H49.013V4.46ZM49.877 2.624C49.541 2.624 49.259 2.516 49.031 2.3C48.815 2.084 48.707 1.82 48.707 1.508C48.707 1.196 48.815 0.931999 49.031 0.715999C49.259 0.487999 49.541 0.373999 49.877 0.373999C50.213 0.373999 50.489 0.482 50.705 0.698C50.933 0.901999 51.047 1.16 51.047 1.472C51.047 1.796 50.933 2.072 50.705 2.3C50.489 2.516 50.213 2.624 49.877 2.624ZM54.0403 0.643999H55.7683V14H54.0403V0.643999Z" fill="#F8F8F8"/>
<path d="M66.9797 3.992L69.1217 5.198L68.5637 6.188L66.3857 4.91L66.4037 7.358H65.3237L65.3417 4.91L63.1637 6.188L62.6057 5.198L64.7657 3.992L62.6057 2.804L63.1637 1.796L65.3417 3.074L65.3237 0.643999H66.4037L66.3857 3.074L68.5637 1.796L69.1217 2.804L66.9797 3.992Z" fill="#EB5757"/>
</svg>
