<svg width="68" height="12" viewBox="0 0 68 12" fill="none" xmlns="http://www.w3.org/2000/svg">
<path d="M8.22987 5.6572H10.4203V9.8604C9.85787 10.2847 9.20667 10.6103 8.46667 10.8372C7.72667 11.0641 6.98174 11.1776 6.23187 11.1776C5.1564 11.1776 4.18947 10.9507 3.33107 10.4968C2.47267 10.0331 1.7968 9.39667 1.30347 8.5876C0.820002 7.76867 0.578268 6.84613 0.578268 5.82C0.578268 4.79387 0.820002 3.87627 1.30347 3.0672C1.7968 2.24827 2.4776 1.61187 3.34587 1.158C4.21413 0.694266 5.19094 0.4624 6.27627 0.4624C7.184 0.4624 8.00787 0.615333 8.74787 0.921199C9.48787 1.22707 10.1095 1.67107 10.6127 2.2532L9.07347 3.674C8.33347 2.89453 7.44054 2.5048 6.39467 2.5048C5.7336 2.5048 5.14654 2.64293 4.63347 2.9192C4.1204 3.19547 3.7208 3.5852 3.43467 4.0884C3.14853 4.5916 3.00547 5.1688 3.00547 5.82C3.00547 6.46133 3.14853 7.0336 3.43467 7.5368C3.7208 8.04 4.11547 8.43467 4.61867 8.7208C5.13174 8.99707 5.71387 9.1352 6.36507 9.1352C7.05573 9.1352 7.67734 8.9872 8.22987 8.6912V5.6572ZM20.2842 7.0484C20.2842 7.078 20.2694 7.2852 20.2398 7.67H14.2162C14.3248 8.16333 14.5813 8.55307 14.9858 8.8392C15.3904 9.12533 15.8936 9.2684 16.4954 9.2684C16.9098 9.2684 17.2749 9.2092 17.5906 9.0908C17.9162 8.96253 18.2172 8.7652 18.4934 8.4988L19.7218 9.8308C18.972 10.6892 17.8768 11.1184 16.4362 11.1184C15.5384 11.1184 14.7441 10.9457 14.0534 10.6004C13.3628 10.2452 12.83 9.7568 12.455 9.1352C12.0801 8.5136 11.8926 7.80813 11.8926 7.0188C11.8926 6.23933 12.0752 5.5388 12.4402 4.9172C12.8152 4.28573 13.3233 3.79733 13.9646 3.452C14.6158 3.0968 15.341 2.9192 16.1402 2.9192C16.9197 2.9192 17.6252 3.08693 18.2566 3.4224C18.8881 3.75787 19.3814 4.24133 19.7366 4.8728C20.1017 5.4944 20.2842 6.2196 20.2842 7.0484ZM16.155 4.6656C15.6321 4.6656 15.193 4.8136 14.8378 5.1096C14.4826 5.4056 14.2656 5.81013 14.1866 6.3232H18.1086C18.0297 5.82 17.8126 5.4204 17.4574 5.1244C17.1022 4.81853 16.6681 4.6656 16.155 4.6656ZM26.661 2.9192C27.6476 2.9192 28.4419 3.2152 29.0438 3.8072C29.6555 4.3992 29.9614 5.27733 29.9614 6.4416V11H27.6526V6.7968C27.6526 6.16533 27.5144 5.69667 27.2382 5.3908C26.9619 5.07507 26.5623 4.9172 26.0394 4.9172C25.4572 4.9172 24.9935 5.09973 24.6482 5.4648C24.3028 5.82 24.1302 6.3528 24.1302 7.0632V11H21.8214V3.0376H24.0266V3.97C24.3324 3.63453 24.7123 3.378 25.1662 3.2004C25.62 3.01293 26.1183 2.9192 26.661 2.9192ZM40.2513 0.0183992V11H38.0461V10.0824C37.4738 10.7731 36.645 11.1184 35.5597 11.1184C34.8098 11.1184 34.129 10.9507 33.5173 10.6152C32.9154 10.2797 32.4418 9.8012 32.0965 9.1796C31.7512 8.558 31.5785 7.83773 31.5785 7.0188C31.5785 6.19987 31.7512 5.4796 32.0965 4.858C32.4418 4.2364 32.9154 3.75787 33.5173 3.4224C34.129 3.08693 34.8098 2.9192 35.5597 2.9192C36.576 2.9192 37.3702 3.23987 37.9425 3.8812V0.0183992H40.2513ZM35.9593 9.224C36.5414 9.224 37.0249 9.02667 37.4097 8.632C37.7945 8.22747 37.9869 7.68973 37.9869 7.0188C37.9869 6.34787 37.7945 5.81507 37.4097 5.4204C37.0249 5.01587 36.5414 4.8136 35.9593 4.8136C35.3673 4.8136 34.8789 5.01587 34.4941 5.4204C34.1093 5.81507 33.9169 6.34787 33.9169 7.0188C33.9169 7.68973 34.1093 8.22747 34.4941 8.632C34.8789 9.02667 35.3673 9.224 35.9593 9.224ZM50.1878 7.0484C50.1878 7.078 50.173 7.2852 50.1434 7.67H44.1198C44.2283 8.16333 44.4848 8.55307 44.8894 8.8392C45.2939 9.12533 45.7971 9.2684 46.399 9.2684C46.8134 9.2684 47.1784 9.2092 47.4942 9.0908C47.8198 8.96253 48.1207 8.7652 48.397 8.4988L49.6254 9.8308C48.8755 10.6892 47.7803 11.1184 46.3398 11.1184C45.4419 11.1184 44.6476 10.9457 43.957 10.6004C43.2663 10.2452 42.7335 9.7568 42.3586 9.1352C41.9836 8.5136 41.7962 7.80813 41.7962 7.0188C41.7962 6.23933 41.9787 5.5388 42.3438 4.9172C42.7187 4.28573 43.2268 3.79733 43.8682 3.452C44.5194 3.0968 45.2446 2.9192 46.0438 2.9192C46.8232 2.9192 47.5287 3.08693 48.1602 3.4224C48.7916 3.75787 49.285 4.24133 49.6402 4.8728C50.0052 5.4944 50.1878 6.2196 50.1878 7.0484ZM46.0586 4.6656C45.5356 4.6656 45.0966 4.8136 44.7414 5.1096C44.3862 5.4056 44.1691 5.81013 44.0902 6.3232H48.0122C47.9332 5.82 47.7162 5.4204 47.361 5.1244C47.0058 4.81853 46.5716 4.6656 46.0586 4.6656ZM53.9301 4.0884C54.2063 3.7036 54.5763 3.41253 55.0401 3.2152C55.5137 3.01787 56.0563 2.9192 56.6681 2.9192V5.0504C56.4115 5.03067 56.2389 5.0208 56.1501 5.0208C55.489 5.0208 54.971 5.20827 54.5961 5.5832C54.2211 5.94827 54.0337 6.5008 54.0337 7.2408V11H51.7249V3.0376H53.9301V4.0884Z" fill="#F8F8F8"/>
<path d="M65.8421 2.9488L67.4553 3.822L66.7301 5.0356L65.1021 4.0736L65.1317 5.8644H63.7405L63.7553 4.0588L62.1273 5.0356L61.4169 3.822L63.0301 2.9488L61.4169 2.0608L62.1273 0.847199L63.7553 1.824L63.7405 0.0183992H65.1317L65.1021 1.824L66.7301 0.847199L67.4553 2.0608L65.8421 2.9488Z" fill="#EB5757"/>
</svg>
