<svg width="32" height="24" viewBox="0 0 32 24" fill="none" xmlns="http://www.w3.org/2000/svg">
<path d="M13.6132 10.8912H6.20752V18.5876H13.6132V10.8912Z" stroke="#F8F8F8" stroke-width="1.5" stroke-miterlimit="10"/>
<path d="M17.8384 11.0488H25.7983" stroke="#F8F8F8" stroke-width="1.5" stroke-miterlimit="10" stroke-linecap="round"/>
<path d="M17.8379 14.7363H25.7978" stroke="#F8F8F8" stroke-width="1.5" stroke-miterlimit="10" stroke-linecap="round"/>
<path d="M17.8379 18.4243H25.7978" stroke="#F8F8F8" stroke-width="1.5" stroke-miterlimit="10" stroke-linecap="round"/>
<path d="M3.10059 6.51941H28.8994" stroke="#F8F8F8" stroke-width="1.5" stroke-miterlimit="10" stroke-linejoin="round"/>
<path d="M5.23831 3.79893C5.23831 3.99889 5.0753 4.16177 4.87502 4.16177C4.67474 4.16177 4.51172 3.99889 4.51172 3.79893C4.51172 3.59897 4.67474 3.43654 4.87502 3.43654C5.0753 3.43654 5.23831 3.59897 5.23831 3.79893Z" fill="#F8F8F8" stroke="#F8F8F8" stroke-width="1.5" stroke-miterlimit="10"/>
<path d="M8.34505 4.16177C8.54569 4.16177 8.70835 3.99925 8.70835 3.79893C8.70835 3.59861 8.54569 3.43654 8.34505 3.43654C8.14441 3.43654 7.98175 3.59861 7.98175 3.79893C7.98175 3.99925 8.14441 4.16177 8.34505 4.16177Z" fill="#F8F8F8" stroke="#F8F8F8" stroke-width="1.5" stroke-miterlimit="10"/>
<path d="M11.8151 4.16177C12.0157 4.16177 12.1784 3.99925 12.1784 3.79893C12.1784 3.59861 12.0157 3.43654 11.8151 3.43654C11.6144 3.43654 11.4518 3.59861 11.4518 3.79893C11.4518 3.99925 11.6144 4.16177 11.8151 4.16177Z" fill="#F8F8F8" stroke="#F8F8F8" stroke-width="1.5" stroke-miterlimit="10"/>
<path d="M31 21.3402C31 22.2516 30.2501 23 29.3372 23H2.66279C1.74523 23 1 22.2516 1 21.3402V2.66027C1 1.74418 1.74988 1 2.66279 1H29.3372C30.2548 1 31 1.74883 31 2.66027V21.3402Z" stroke="#F8F8F8" stroke-width="1.5" stroke-miterlimit="10"/>
</svg>
