<svg width="26" height="30" viewBox="0 0 26 30" fill="none" xmlns="http://www.w3.org/2000/svg">
<path d="M21.9154 9.30136V3.57577L13.0024 1L4.08936 3.59374L13.0024 6.55074L21.6007 3.7103" stroke="#F8F8F8" stroke-opacity="0.4" stroke-width="1.5" stroke-miterlimit="10" stroke-linecap="round" stroke-linejoin="round"/>
<path d="M7.42676 6.7261V7.79839C8.72094 8.95161 10.7597 9.68771 13.0068 9.68771C15.2495 9.68771 17.2927 8.94712 18.5824 7.79839V4.74717" stroke="#F8F8F8" stroke-opacity="0.4" stroke-width="1.5" stroke-miterlimit="10" stroke-linejoin="round"/>
<path d="M8.1665 10.527C8.50778 14.1482 10.5022 17.1097 12.9532 17.1097C15.4175 17.1097 17.3986 14.1437 17.7399 10.527C17.8108 9.7821 17.8552 9.06875 17.8374 8.40015" stroke="#F8F8F8" stroke-opacity="0.4" stroke-width="1.5" stroke-miterlimit="10" stroke-linejoin="round"/>
<path d="M25 29.0003L24.5524 22.9382C24.1091 19.5907 22.1235 19.2182 22.1235 19.2182C22.1235 19.2182 19.9607 18.599 17.6604 18.2086L13.0022 24.4997L8.34404 18.2086C6.0482 18.599 3.88089 19.2182 3.88089 19.2182C3.88089 19.2182 1.89529 19.5907 1.44765 22.9382L1 29.0003" stroke="#F8F8F8" stroke-opacity="0.4" stroke-width="1.5" stroke-miterlimit="10" stroke-linecap="round" stroke-linejoin="round"/>
<path d="M17.7227 23.2562H20.936" stroke="#F8F8F8" stroke-opacity="0.4" stroke-width="1.5" stroke-miterlimit="10" stroke-linecap="round" stroke-linejoin="round"/>
</svg>
