<svg width="25" height="30" viewBox="0 0 25 30" fill="none" xmlns="http://www.w3.org/2000/svg">
<path d="M7.68268 17.1038L5.25176 17.9142C5.25176 17.9142 1 18.9772 1 22.4755V28.9992" stroke="#F8F8F8" stroke-opacity="0.4" stroke-width="1.5" stroke-miterlimit="10"/>
<path d="M10.5836 19.5544L5.98456 22.1768L7.67869 17.1097" stroke="#F8F8F8" stroke-opacity="0.4" stroke-width="1.5" stroke-miterlimit="10" stroke-linecap="round" stroke-linejoin="round"/>
<path d="M8.87494 20.6448L12.4932 27.829" stroke="#F8F8F8" stroke-opacity="0.4" stroke-width="1.5" stroke-miterlimit="10" stroke-linecap="round" stroke-linejoin="round"/>
<path d="M17.3174 17.1058L19.7483 17.9162C19.7483 17.9162 24.0001 18.9791 24.0001 22.4775V29.0012" stroke="#F8F8F8" stroke-opacity="0.4" stroke-width="1.5" stroke-miterlimit="10"/>
<path d="M14.4168 19.5554L19.0158 22.1778L17.3217 17.1107" stroke="#F8F8F8" stroke-opacity="0.4" stroke-width="1.5" stroke-miterlimit="10" stroke-linecap="round" stroke-linejoin="round"/>
<path d="M16.1251 20.6464L12.5068 27.8305" stroke="#F8F8F8" stroke-opacity="0.4" stroke-width="1.5" stroke-miterlimit="10" stroke-linecap="round" stroke-linejoin="round"/>
<path d="M13.9901 4.70312C13.9901 4.70312 13.3049 8.96017 7.38721 8.50591" stroke="#F8F8F8" stroke-opacity="0.4" stroke-width="1.5" stroke-miterlimit="10" stroke-linecap="round" stroke-linejoin="round"/>
<path d="M13.6099 5.87402C13.6099 5.87402 15.0506 8.39374 17.5566 8.51082" stroke="#F8F8F8" stroke-opacity="0.4" stroke-width="1.5" stroke-miterlimit="10" stroke-linecap="round"/>
<path d="M19.8517 14.73C19.8517 11.4471 19.8517 11.5875 19.8517 8.69334C19.8517 0.586787 12.4979 1.00362 12.4979 1.00362C12.4979 1.00362 5.14417 0.750698 5.14417 8.69334C5.14417 11.5922 5.14417 11.4518 5.14417 14.73" stroke="#F8F8F8" stroke-opacity="0.4" stroke-width="1.5" stroke-miterlimit="10" stroke-linecap="round" stroke-linejoin="round"/>
<path d="M8.12872 8.98374C8.12872 12.6319 10.2077 15.9477 12.5541 15.9477C14.924 15.9477 16.7261 12.6225 16.7261 9.18978C16.7261 9.18978 16.7355 9.10553 16.7261 8.53418" stroke="#F8F8F8" stroke-opacity="0.4" stroke-width="1.5" stroke-miterlimit="10" stroke-linecap="round" stroke-linejoin="round"/>
</svg>
