<svg width="26" height="28" viewBox="0 0 26 28" fill="none" xmlns="http://www.w3.org/2000/svg">
<path d="M12.9978 1C7.76537 1 7.47738 4.18917 7.84068 8.06617C8.20841 11.9521 10.6275 15.1278 12.9978 15.1278C15.3681 15.1278 17.7871 11.9476 18.1548 8.06617C18.5181 4.18917 18.2302 1 12.9978 1Z" stroke="#F8F8F8" stroke-opacity="0.4" stroke-width="1.5" stroke-miterlimit="10" stroke-linejoin="round"/>
<path d="M14.5486 4.13078C14.5486 4.13078 13.9948 6.78396 9.98962 6.78396" stroke="#F8F8F8" stroke-opacity="0.4" stroke-width="1.5" stroke-miterlimit="10" stroke-linecap="round" stroke-linejoin="round"/>
<path d="M14.0922 5.20291C14.0922 5.20291 15.8909 6.44466 18.1017 7.02531" stroke="#F8F8F8" stroke-opacity="0.4" stroke-width="1.5" stroke-miterlimit="10" stroke-linecap="round" stroke-linejoin="round"/>
<path d="M12.1738 21.1839L11.4473 26.9994" stroke="#F8F8F8" stroke-opacity="0.4" stroke-width="1.5" stroke-miterlimit="10" stroke-linecap="round" stroke-linejoin="round"/>
<path d="M13.8217 21.1835L14.5483 26.999" stroke="#F8F8F8" stroke-opacity="0.4" stroke-width="1.5" stroke-miterlimit="10" stroke-linecap="round" stroke-linejoin="round"/>
<path d="M1 26.9996L1.44748 21.0009C1.89053 17.6912 3.8621 17.3205 3.8621 17.3205C3.8621 17.3205 6.01086 16.7086 8.29698 16.3244L10.2951 20.4024" stroke="#F8F8F8" stroke-opacity="0.4" stroke-width="1.5" stroke-miterlimit="10" stroke-linecap="round" stroke-linejoin="round"/>
<path d="M24.9998 26.9992L24.5524 21.0006C24.1093 17.6908 22.1378 17.3201 22.1378 17.3201C22.1378 17.3201 19.989 16.7082 17.7029 16.3241L15.7047 20.4021" stroke="#F8F8F8" stroke-opacity="0.4" stroke-width="1.5" stroke-miterlimit="10" stroke-linecap="round" stroke-linejoin="round"/>
<path d="M13.0067 22.0058L10.9155 19.6252L12.9934 17.2444H13.0067L15.0846 19.6252L13.0067 22.0058Z" stroke="#F8F8F8" stroke-opacity="0.4" stroke-width="1.5" stroke-miterlimit="10" stroke-linecap="round" stroke-linejoin="round"/>
</svg>
