<svg width="26" height="26" viewBox="0 0 26 26" fill="none" xmlns="http://www.w3.org/2000/svg">
<path d="M7.90894 5.06835L17.456 1L19.2781 5.14424" stroke="#F8F8F8" stroke-opacity="0.4" stroke-width="1.5" stroke-miterlimit="10"/>
<path d="M23.1427 19.8513V22.7674C23.1427 23.9955 22.1501 25.0004 20.9368 25.0004H3.20589C1.99265 25.0004 1 23.9955 1 22.7674V9.44589C1 8.21777 1.99265 7.21295 3.20589 7.21295H20.9368C22.1501 7.21295 23.1427 8.21777 23.1427 9.44589V12.2772" stroke="#F8F8F8" stroke-opacity="0.4" stroke-width="1.5" stroke-miterlimit="10" stroke-linejoin="round"/>
<path d="M16.6926 16.1083C16.6926 16.3004 16.5382 16.4566 16.3485 16.4566C16.1588 16.4566 16.0044 16.3004 16.0044 16.1083C16.0044 15.9163 16.1588 15.7599 16.3485 15.7599C16.5426 15.7599 16.6926 15.9163 16.6926 16.1083Z" fill="#F8F8F8" fill-opacity="0.4" stroke="#F8F8F8" stroke-opacity="0.4" stroke-width="1.5" stroke-miterlimit="10"/>
<path d="M15.2674 19.7569C14.0542 19.7569 13.0615 18.7521 13.0615 17.524V14.697C13.0615 13.4689 14.0542 12.4641 15.2674 12.4641H24.9998V19.7569H15.2674Z" stroke="#F8F8F8" stroke-opacity="0.4" stroke-width="1.5" stroke-miterlimit="10" stroke-linecap="round" stroke-linejoin="round"/>
</svg>
