<svg width="24" height="23" viewBox="0 0 24 23" fill="none" xmlns="http://www.w3.org/2000/svg">
<path d="M11.9999 11.0108V13.7464" stroke="white" stroke-opacity="0.4" stroke-width="1.5" stroke-miterlimit="10" stroke-linecap="round"/>
<path d="M14.2748 15.335L12 13.743L9.7251 15.335" stroke="white" stroke-opacity="0.4" stroke-width="1.5" stroke-miterlimit="10" stroke-linecap="round"/>
<path d="M7.97882 10.4721V8.86585C7.97882 7.46039 9.01717 6.94406 10.3564 6.94406L12.0002 8.7152L13.5265 6.94406C14.8657 6.94406 16.0215 7.46398 16.0215 8.86585V10.4721" stroke="white" stroke-opacity="0.4" stroke-width="1.5" stroke-miterlimit="10" stroke-linejoin="round"/>
<path d="M13.8604 3.53111C13.8604 4.54576 13.0239 5.37762 12.0002 5.37762C10.9765 5.37762 10.14 4.54576 10.14 3.53111V2.84634C10.14 1.83169 10.9765 0.999878 12.0002 0.999878C13.0239 0.999878 13.8604 1.83169 13.8604 2.84634V3.53111Z" stroke="white" stroke-opacity="0.4" stroke-width="1.5" stroke-miterlimit="10"/>
<path d="M14.9573 22.9991V21.3929C14.9573 19.9874 15.9957 19.4711 17.3349 19.4711L18.9787 21.2423L20.505 19.4711C21.8443 19.4711 23 19.991 23 21.3929V22.9991" stroke="white" stroke-opacity="0.4" stroke-width="1.5" stroke-miterlimit="10" stroke-linejoin="round"/>
<path d="M20.839 16.0583C20.839 17.073 20.0024 17.9048 18.9788 17.9048C17.9551 17.9048 17.1185 17.073 17.1185 16.0583V15.3735C17.1185 14.3588 17.9551 13.5271 18.9788 13.5271C20.0024 13.5271 20.839 14.3588 20.839 15.3735V16.0583Z" stroke="white" stroke-opacity="0.4" stroke-width="1.5" stroke-miterlimit="10"/>
<path d="M1 22.9991V21.3929C1 19.9874 2.03836 19.4711 3.37759 19.4711L5.02136 21.2423L6.5477 19.4711C7.88693 19.4711 9.04271 19.991 9.04271 21.3929V22.9991" stroke="white" stroke-opacity="0.4" stroke-width="1.5" stroke-miterlimit="10" stroke-linejoin="round"/>
<path d="M6.88161 16.0583C6.88161 17.073 6.04506 17.9048 5.02138 17.9048C3.99769 17.9048 3.16113 17.073 3.16113 16.0583V15.3735C3.16113 14.3588 3.99769 13.5271 5.02138 13.5271C6.04506 13.5271 6.88161 14.3588 6.88161 15.3735V16.0583Z" stroke="white" stroke-opacity="0.4" stroke-width="1.5" stroke-miterlimit="10"/>
</svg>
