<svg width="132" height="15" viewBox="0 0 132 15" fill="none" xmlns="http://www.w3.org/2000/svg">
<path d="M12.572 14L12.554 4.82L8 12.47H7.172L2.618 4.874V14H0.89V1.4H2.366L7.622 10.256L12.806 1.4H14.282L14.3 14H12.572ZM17.8294 4.46H19.5574V14H17.8294V4.46ZM18.6934 2.624C18.3574 2.624 18.0754 2.516 17.8474 2.3C17.6314 2.084 17.5234 1.82 17.5234 1.508C17.5234 1.196 17.6314 0.931999 17.8474 0.715999C18.0754 0.487999 18.3574 0.373999 18.6934 0.373999C19.0294 0.373999 19.3054 0.482 19.5214 0.698C19.7494 0.901999 19.8634 1.16 19.8634 1.472C19.8634 1.796 19.7494 2.072 19.5214 2.3C19.3054 2.516 19.0294 2.624 18.6934 2.624ZM31.8568 0.643999V14H30.2008V12.488C29.8168 13.016 29.3308 13.418 28.7428 13.694C28.1548 13.97 27.5068 14.108 26.7988 14.108C25.8748 14.108 25.0468 13.904 24.3148 13.496C23.5828 13.088 23.0068 12.518 22.5868 11.786C22.1788 11.042 21.9748 10.19 21.9748 9.23C21.9748 8.27 22.1788 7.424 22.5868 6.692C23.0068 5.96 23.5828 5.39 24.3148 4.982C25.0468 4.574 25.8748 4.37 26.7988 4.37C27.4828 4.37 28.1128 4.502 28.6888 4.766C29.2648 5.018 29.7448 5.396 30.1288 5.9V0.643999H31.8568ZM26.9428 12.596C27.5428 12.596 28.0888 12.458 28.5808 12.182C29.0728 11.894 29.4568 11.498 29.7328 10.994C30.0088 10.478 30.1468 9.89 30.1468 9.23C30.1468 8.57 30.0088 7.988 29.7328 7.484C29.4568 6.968 29.0728 6.572 28.5808 6.296C28.0888 6.02 27.5428 5.882 26.9428 5.882C26.3308 5.882 25.7788 6.02 25.2868 6.296C24.8068 6.572 24.4228 6.968 24.1348 7.484C23.8588 7.988 23.7208 8.57 23.7208 9.23C23.7208 9.89 23.8588 10.478 24.1348 10.994C24.4228 11.498 24.8068 11.894 25.2868 12.182C25.7788 12.458 26.3308 12.596 26.9428 12.596ZM44.1263 0.643999V14H42.4703V12.488C42.0863 13.016 41.6003 13.418 41.0123 13.694C40.4243 13.97 39.7763 14.108 39.0683 14.108C38.1443 14.108 37.3163 13.904 36.5843 13.496C35.8523 13.088 35.2763 12.518 34.8563 11.786C34.4483 11.042 34.2443 10.19 34.2443 9.23C34.2443 8.27 34.4483 7.424 34.8563 6.692C35.2763 5.96 35.8523 5.39 36.5843 4.982C37.3163 4.574 38.1443 4.37 39.0683 4.37C39.7523 4.37 40.3823 4.502 40.9583 4.766C41.5343 5.018 42.0143 5.396 42.3983 5.9V0.643999H44.1263ZM39.2123 12.596C39.8123 12.596 40.3583 12.458 40.8503 12.182C41.3423 11.894 41.7263 11.498 42.0023 10.994C42.2783 10.478 42.4163 9.89 42.4163 9.23C42.4163 8.57 42.2783 7.988 42.0023 7.484C41.7263 6.968 41.3423 6.572 40.8503 6.296C40.3583 6.02 39.8123 5.882 39.2123 5.882C38.6003 5.882 38.0483 6.02 37.5563 6.296C37.0763 6.572 36.6923 6.968 36.4043 7.484C36.1283 7.988 35.9903 8.57 35.9903 9.23C35.9903 9.89 36.1283 10.478 36.4043 10.994C36.6923 11.498 37.0763 11.894 37.5563 12.182C38.0483 12.458 38.6003 12.596 39.2123 12.596ZM47.3958 0.643999H49.1238V14H47.3958V0.643999ZM61.0452 9.284C61.0452 9.416 61.0332 9.59 61.0092 9.806H53.2692C53.3772 10.646 53.7432 11.324 54.3672 11.84C55.0032 12.344 55.7892 12.596 56.7252 12.596C57.8652 12.596 58.7832 12.212 59.4792 11.444L60.4332 12.56C60.0012 13.064 59.4612 13.448 58.8132 13.712C58.1772 13.976 57.4632 14.108 56.6712 14.108C55.6632 14.108 54.7692 13.904 53.9892 13.496C53.2092 13.076 52.6032 12.494 52.1712 11.75C51.7512 11.006 51.5412 10.166 51.5412 9.23C51.5412 8.306 51.7452 7.472 52.1532 6.728C52.5732 5.984 53.1432 5.408 53.8632 5C54.5952 4.58 55.4172 4.37 56.3292 4.37C57.2412 4.37 58.0512 4.58 58.7592 5C59.4792 5.408 60.0372 5.984 60.4332 6.728C60.8412 7.472 61.0452 8.324 61.0452 9.284ZM56.3292 5.828C55.5012 5.828 54.8052 6.08 54.2412 6.584C53.6892 7.088 53.3652 7.748 53.2692 8.564H59.3892C59.2932 7.76 58.9632 7.106 58.3992 6.602C57.8472 6.086 57.1572 5.828 56.3292 5.828ZM73.3726 4.37C74.5846 4.37 75.5446 4.724 76.2526 5.432C76.9726 6.128 77.3326 7.154 77.3326 8.51V14H75.6046V8.708C75.6046 7.784 75.3826 7.088 74.9386 6.62C74.4946 6.152 73.8586 5.918 73.0306 5.918C72.0946 5.918 71.3566 6.194 70.8166 6.746C70.2766 7.286 70.0066 8.066 70.0066 9.086V14H68.2786V4.46H69.9346V5.9C70.2826 5.408 70.7506 5.03 71.3386 4.766C71.9386 4.502 72.6166 4.37 73.3726 4.37ZM84.0046 4.37C85.3246 4.37 86.3326 4.694 87.0286 5.342C87.7366 5.99 88.0906 6.956 88.0906 8.24V14H86.4526V12.74C86.1646 13.184 85.7506 13.526 85.2106 13.766C84.6826 13.994 84.0526 14.108 83.3206 14.108C82.2526 14.108 81.3946 13.85 80.7466 13.334C80.1106 12.818 79.7926 12.14 79.7926 11.3C79.7926 10.46 80.0986 9.788 80.7106 9.284C81.3226 8.768 82.2946 8.51 83.6266 8.51H86.3626V8.168C86.3626 7.424 86.1466 6.854 85.7146 6.458C85.2826 6.062 84.6466 5.864 83.8066 5.864C83.2426 5.864 82.6906 5.96 82.1506 6.152C81.6106 6.332 81.1546 6.578 80.7826 6.89L80.0626 5.594C80.5546 5.198 81.1426 4.898 81.8266 4.694C82.5106 4.478 83.2366 4.37 84.0046 4.37ZM83.6086 12.776C84.2686 12.776 84.8386 12.632 85.3186 12.344C85.7986 12.044 86.1466 11.624 86.3626 11.084V9.752H83.6986C82.2346 9.752 81.5026 10.244 81.5026 11.228C81.5026 11.708 81.6886 12.086 82.0606 12.362C82.4326 12.638 82.9486 12.776 83.6086 12.776ZM103.222 4.37C104.422 4.37 105.37 4.718 106.066 5.414C106.774 6.11 107.128 7.142 107.128 8.51V14H105.4V8.708C105.4 7.784 105.184 7.088 104.752 6.62C104.332 6.152 103.726 5.918 102.934 5.918C102.058 5.918 101.362 6.194 100.846 6.746C100.33 7.286 100.072 8.066 100.072 9.086V14H98.3444V8.708C98.3444 7.784 98.1284 7.088 97.6964 6.62C97.2764 6.152 96.6704 5.918 95.8784 5.918C95.0024 5.918 94.3064 6.194 93.7904 6.746C93.2744 7.286 93.0164 8.066 93.0164 9.086V14H91.2884V4.46H92.9444V5.882C93.2924 5.39 93.7484 5.018 94.3124 4.766C94.8764 4.502 95.5184 4.37 96.2384 4.37C96.9824 4.37 97.6424 4.52 98.2184 4.82C98.7944 5.12 99.2384 5.558 99.5504 6.134C99.9104 5.582 100.408 5.15 101.044 4.838C101.692 4.526 102.418 4.37 103.222 4.37ZM118.983 9.284C118.983 9.416 118.971 9.59 118.947 9.806H111.207C111.315 10.646 111.681 11.324 112.305 11.84C112.941 12.344 113.727 12.596 114.663 12.596C115.803 12.596 116.721 12.212 117.417 11.444L118.371 12.56C117.939 13.064 117.399 13.448 116.751 13.712C116.115 13.976 115.401 14.108 114.609 14.108C113.601 14.108 112.707 13.904 111.927 13.496C111.147 13.076 110.541 12.494 110.109 11.75C109.689 11.006 109.479 10.166 109.479 9.23C109.479 8.306 109.683 7.472 110.091 6.728C110.511 5.984 111.081 5.408 111.801 5C112.533 4.58 113.355 4.37 114.267 4.37C115.179 4.37 115.989 4.58 116.697 5C117.417 5.408 117.975 5.984 118.371 6.728C118.779 7.472 118.983 8.324 118.983 9.284ZM114.267 5.828C113.439 5.828 112.743 6.08 112.179 6.584C111.627 7.088 111.303 7.748 111.207 8.564H117.327C117.231 7.76 116.901 7.106 116.337 6.602C115.785 6.086 115.095 5.828 114.267 5.828Z" fill="#F8F8F8"/>
<path d="M129.294 3.992L131.436 5.198L130.878 6.188L128.7 4.91L128.718 7.358H127.638L127.656 4.91L125.478 6.188L124.92 5.198L127.08 3.992L124.92 2.804L125.478 1.796L127.656 3.074L127.638 0.643999H128.718L128.7 3.074L130.878 1.796L131.436 2.804L129.294 3.992Z" fill="#EB5757"/>
</svg>
