<svg width="67" height="15" viewBox="0 0 67 15" fill="none" xmlns="http://www.w3.org/2000/svg">
<path d="M11.726 1.4V14H10.25L2.69 4.604V14H0.89V1.4H2.366L9.926 10.796V1.4H11.726ZM18.7194 4.37C20.0394 4.37 21.0474 4.694 21.7434 5.342C22.4514 5.99 22.8054 6.956 22.8054 8.24V14H21.1674V12.74C20.8794 13.184 20.4654 13.526 19.9254 13.766C19.3974 13.994 18.7674 14.108 18.0354 14.108C16.9674 14.108 16.1094 13.85 15.4614 13.334C14.8254 12.818 14.5074 12.14 14.5074 11.3C14.5074 10.46 14.8134 9.788 15.4254 9.284C16.0374 8.768 17.0094 8.51 18.3414 8.51H21.0774V8.168C21.0774 7.424 20.8614 6.854 20.4294 6.458C19.9974 6.062 19.3614 5.864 18.5214 5.864C17.9574 5.864 17.4054 5.96 16.8654 6.152C16.3254 6.332 15.8694 6.578 15.4974 6.89L14.7774 5.594C15.2694 5.198 15.8574 4.898 16.5414 4.694C17.2254 4.478 17.9514 4.37 18.7194 4.37ZM18.3234 12.776C18.9834 12.776 19.5534 12.632 20.0334 12.344C20.5134 12.044 20.8614 11.624 21.0774 11.084V9.752H18.4134C16.9494 9.752 16.2174 10.244 16.2174 11.228C16.2174 11.708 16.4034 12.086 16.7754 12.362C17.1474 12.638 17.6634 12.776 18.3234 12.776ZM37.9372 4.37C39.1372 4.37 40.0852 4.718 40.7812 5.414C41.4892 6.11 41.8432 7.142 41.8432 8.51V14H40.1152V8.708C40.1152 7.784 39.8992 7.088 39.4672 6.62C39.0472 6.152 38.4412 5.918 37.6492 5.918C36.7732 5.918 36.0772 6.194 35.5612 6.746C35.0452 7.286 34.7872 8.066 34.7872 9.086V14H33.0592V8.708C33.0592 7.784 32.8432 7.088 32.4112 6.62C31.9912 6.152 31.3852 5.918 30.5932 5.918C29.7172 5.918 29.0212 6.194 28.5052 6.746C27.9892 7.286 27.7312 8.066 27.7312 9.086V14H26.0032V4.46H27.6592V5.882C28.0072 5.39 28.4632 5.018 29.0272 4.766C29.5912 4.502 30.2332 4.37 30.9532 4.37C31.6972 4.37 32.3572 4.52 32.9332 4.82C33.5092 5.12 33.9532 5.558 34.2652 6.134C34.6252 5.582 35.1232 5.15 35.7592 4.838C36.4072 4.526 37.1332 4.37 37.9372 4.37ZM53.6975 9.284C53.6975 9.416 53.6855 9.59 53.6615 9.806H45.9215C46.0295 10.646 46.3955 11.324 47.0195 11.84C47.6555 12.344 48.4415 12.596 49.3775 12.596C50.5175 12.596 51.4355 12.212 52.1315 11.444L53.0855 12.56C52.6535 13.064 52.1135 13.448 51.4655 13.712C50.8295 13.976 50.1155 14.108 49.3235 14.108C48.3155 14.108 47.4215 13.904 46.6415 13.496C45.8615 13.076 45.2555 12.494 44.8235 11.75C44.4035 11.006 44.1935 10.166 44.1935 9.23C44.1935 8.306 44.3975 7.472 44.8055 6.728C45.2255 5.984 45.7955 5.408 46.5155 5C47.2475 4.58 48.0695 4.37 48.9815 4.37C49.8935 4.37 50.7035 4.58 51.4115 5C52.1315 5.408 52.6895 5.984 53.0855 6.728C53.4935 7.472 53.6975 8.324 53.6975 9.284ZM48.9815 5.828C48.1535 5.828 47.4575 6.08 46.8935 6.584C46.3415 7.088 46.0175 7.748 45.9215 8.564H52.0415C51.9455 7.76 51.6155 7.106 51.0515 6.602C50.4995 6.086 49.8095 5.828 48.9815 5.828Z" fill="#F8F8F8"/>
<path d="M64.009 3.992L66.151 5.198L65.593 6.188L63.415 4.91L63.433 7.358H62.353L62.371 4.91L60.193 6.188L59.635 5.198L61.795 3.992L59.635 2.804L60.193 1.796L62.371 3.074L62.353 0.643999H63.433L63.415 3.074L65.593 1.796L66.151 2.804L64.009 3.992Z" fill="#EB5757"/>
</svg>
