<svg width="111" height="18" viewBox="0 0 111 18" fill="none" xmlns="http://www.w3.org/2000/svg">
<path d="M11.726 1.4V14H10.25L2.69 4.604V14H0.89V1.4H2.366L9.926 10.796V1.4H11.726ZM18.7194 4.37C20.0394 4.37 21.0474 4.694 21.7434 5.342C22.4514 5.99 22.8054 6.956 22.8054 8.24V14H21.1674V12.74C20.8794 13.184 20.4654 13.526 19.9254 13.766C19.3974 13.994 18.7674 14.108 18.0354 14.108C16.9674 14.108 16.1094 13.85 15.4614 13.334C14.8254 12.818 14.5074 12.14 14.5074 11.3C14.5074 10.46 14.8134 9.788 15.4254 9.284C16.0374 8.768 17.0094 8.51 18.3414 8.51H21.0774V8.168C21.0774 7.424 20.8614 6.854 20.4294 6.458C19.9974 6.062 19.3614 5.864 18.5214 5.864C17.9574 5.864 17.4054 5.96 16.8654 6.152C16.3254 6.332 15.8694 6.578 15.4974 6.89L14.7774 5.594C15.2694 5.198 15.8574 4.898 16.5414 4.694C17.2254 4.478 17.9514 4.37 18.7194 4.37ZM18.3234 12.776C18.9834 12.776 19.5534 12.632 20.0334 12.344C20.5134 12.044 20.8614 11.624 21.0774 11.084V9.752H18.4134C16.9494 9.752 16.2174 10.244 16.2174 11.228C16.2174 11.708 16.4034 12.086 16.7754 12.362C17.1474 12.638 17.6634 12.776 18.3234 12.776ZM31.3672 13.442C31.1152 13.658 30.8032 13.826 30.4312 13.946C30.0592 14.054 29.6752 14.108 29.2792 14.108C28.3192 14.108 27.5752 13.85 27.0472 13.334C26.5192 12.818 26.2552 12.08 26.2552 11.12V5.882H24.6352V4.46H26.2552V2.372H27.9832V4.46H30.7192V5.882H27.9832V11.048C27.9832 11.564 28.1092 11.96 28.3612 12.236C28.6252 12.512 28.9972 12.65 29.4772 12.65C30.0052 12.65 30.4552 12.5 30.8272 12.2L31.3672 13.442ZM33.4564 4.46H35.1844V14H33.4564V4.46ZM34.3204 2.624C33.9844 2.624 33.7024 2.516 33.4744 2.3C33.2584 2.084 33.1504 1.82 33.1504 1.508C33.1504 1.196 33.2584 0.931999 33.4744 0.715999C33.7024 0.487999 33.9844 0.373999 34.3204 0.373999C34.6564 0.373999 34.9324 0.482 35.1484 0.698C35.3764 0.901999 35.4904 1.16 35.4904 1.472C35.4904 1.796 35.3764 2.072 35.1484 2.3C34.9324 2.516 34.6564 2.624 34.3204 2.624ZM42.5697 14.108C41.6217 14.108 40.7697 13.898 40.0137 13.478C39.2577 13.058 38.6637 12.482 38.2317 11.75C37.8117 11.006 37.6017 10.166 37.6017 9.23C37.6017 8.294 37.8117 7.46 38.2317 6.728C38.6637 5.984 39.2577 5.408 40.0137 5C40.7697 4.58 41.6217 4.37 42.5697 4.37C43.5177 4.37 44.3637 4.58 45.1077 5C45.8637 5.408 46.4517 5.984 46.8717 6.728C47.3037 7.46 47.5197 8.294 47.5197 9.23C47.5197 10.166 47.3037 11.006 46.8717 11.75C46.4517 12.482 45.8637 13.058 45.1077 13.478C44.3637 13.898 43.5177 14.108 42.5697 14.108ZM42.5697 12.596C43.1817 12.596 43.7277 12.458 44.2077 12.182C44.6997 11.894 45.0837 11.498 45.3597 10.994C45.6357 10.478 45.7737 9.89 45.7737 9.23C45.7737 8.57 45.6357 7.988 45.3597 7.484C45.0837 6.968 44.6997 6.572 44.2077 6.296C43.7277 6.02 43.1817 5.882 42.5697 5.882C41.9577 5.882 41.4057 6.02 40.9137 6.296C40.4337 6.572 40.0497 6.968 39.7617 7.484C39.4857 7.988 39.3477 8.57 39.3477 9.23C39.3477 9.89 39.4857 10.478 39.7617 10.994C40.0497 11.498 40.4337 11.894 40.9137 12.182C41.4057 12.458 41.9577 12.596 42.5697 12.596ZM55.0035 4.37C56.2155 4.37 57.1755 4.724 57.8835 5.432C58.6035 6.128 58.9635 7.154 58.9635 8.51V14H57.2355V8.708C57.2355 7.784 57.0135 7.088 56.5695 6.62C56.1255 6.152 55.4895 5.918 54.6615 5.918C53.7255 5.918 52.9875 6.194 52.4475 6.746C51.9075 7.286 51.6375 8.066 51.6375 9.086V14H49.9095V4.46H51.5655V5.9C51.9135 5.408 52.3815 5.03 52.9695 4.766C53.5695 4.502 54.2475 4.37 55.0035 4.37ZM65.6354 4.37C66.9554 4.37 67.9634 4.694 68.6594 5.342C69.3674 5.99 69.7214 6.956 69.7214 8.24V14H68.0834V12.74C67.7954 13.184 67.3814 13.526 66.8414 13.766C66.3134 13.994 65.6834 14.108 64.9514 14.108C63.8834 14.108 63.0254 13.85 62.3774 13.334C61.7414 12.818 61.4234 12.14 61.4234 11.3C61.4234 10.46 61.7294 9.788 62.3414 9.284C62.9534 8.768 63.9254 8.51 65.2574 8.51H67.9934V8.168C67.9934 7.424 67.7774 6.854 67.3454 6.458C66.9134 6.062 66.2774 5.864 65.4374 5.864C64.8734 5.864 64.3214 5.96 63.7814 6.152C63.2414 6.332 62.7854 6.578 62.4134 6.89L61.6934 5.594C62.1854 5.198 62.7734 4.898 63.4574 4.694C64.1414 4.478 64.8674 4.37 65.6354 4.37ZM65.2394 12.776C65.8994 12.776 66.4694 12.632 66.9494 12.344C67.4294 12.044 67.7774 11.624 67.9934 11.084V9.752H65.3294C63.8654 9.752 63.1334 10.244 63.1334 11.228C63.1334 11.708 63.3194 12.086 63.6914 12.362C64.0634 12.638 64.5794 12.776 65.2394 12.776ZM72.9193 0.643999H74.6473V14H72.9193V0.643999ZM77.9466 4.46H79.6746V14H77.9466V4.46ZM78.8106 2.624C78.4746 2.624 78.1926 2.516 77.9646 2.3C77.7486 2.084 77.6406 1.82 77.6406 1.508C77.6406 1.196 77.7486 0.931999 77.9646 0.715999C78.1926 0.487999 78.4746 0.373999 78.8106 0.373999C79.1466 0.373999 79.4226 0.482 79.6386 0.698C79.8666 0.901999 79.9806 1.16 79.9806 1.472C79.9806 1.796 79.8666 2.072 79.6386 2.3C79.4226 2.516 79.1466 2.624 78.8106 2.624ZM88.3379 13.442C88.0859 13.658 87.7739 13.826 87.4019 13.946C87.0299 14.054 86.6459 14.108 86.2499 14.108C85.2899 14.108 84.5459 13.85 84.0179 13.334C83.4899 12.818 83.2259 12.08 83.2259 11.12V5.882H81.6059V4.46H83.2259V2.372H84.9539V4.46H87.6899V5.882H84.9539V11.048C84.9539 11.564 85.0799 11.96 85.3319 12.236C85.5959 12.512 85.9679 12.65 86.4479 12.65C86.9759 12.65 87.4259 12.5 87.7979 12.2L88.3379 13.442ZM98.6933 4.46L94.0673 14.954C93.6593 15.926 93.1793 16.61 92.6273 17.006C92.0873 17.402 91.4333 17.6 90.6653 17.6C90.1973 17.6 89.7413 17.522 89.2973 17.366C88.8653 17.222 88.5053 17.006 88.2173 16.718L88.9553 15.422C89.4473 15.89 90.0173 16.124 90.6653 16.124C91.0853 16.124 91.4333 16.01 91.7093 15.782C91.9973 15.566 92.2553 15.188 92.4833 14.648L92.7893 13.982L88.5773 4.46H90.3773L93.7073 12.092L97.0013 4.46H98.6933Z" fill="#F8F8F8"/>
<path d="M108.218 3.992L110.36 5.198L109.802 6.188L107.624 4.91L107.642 7.358H106.562L106.58 4.91L104.402 6.188L103.844 5.198L106.004 3.992L103.844 2.804L104.402 1.796L106.58 3.074L106.562 0.643999H107.642L107.624 3.074L109.802 1.796L110.36 2.804L108.218 3.992Z" fill="#EB5757"/>
</svg>
