<svg width="233" height="18" viewBox="0 0 233 18" fill="none" xmlns="http://www.w3.org/2000/svg">
<path d="M5.804 1.4C7.436 1.4 8.72 1.79 9.656 2.57C10.592 3.35 11.06 4.424 11.06 5.792C11.06 7.16 10.592 8.234 9.656 9.014C8.72 9.794 7.436 10.184 5.804 10.184H2.69V14H0.89V1.4H5.804ZM5.75 8.618C6.89 8.618 7.76 8.378 8.36 7.898C8.96 7.406 9.26 6.704 9.26 5.792C9.26 4.88 8.96 4.184 8.36 3.704C7.76 3.212 6.89 2.966 5.75 2.966H2.69V8.618H5.75ZM16.8386 4.37C18.1586 4.37 19.1666 4.694 19.8626 5.342C20.5706 5.99 20.9246 6.956 20.9246 8.24V14H19.2866V12.74C18.9986 13.184 18.5846 13.526 18.0446 13.766C17.5166 13.994 16.8866 14.108 16.1546 14.108C15.0866 14.108 14.2286 13.85 13.5806 13.334C12.9446 12.818 12.6266 12.14 12.6266 11.3C12.6266 10.46 12.9326 9.788 13.5446 9.284C14.1566 8.768 15.1286 8.51 16.4606 8.51H19.1966V8.168C19.1966 7.424 18.9806 6.854 18.5486 6.458C18.1166 6.062 17.4806 5.864 16.6406 5.864C16.0766 5.864 15.5246 5.96 14.9846 6.152C14.4446 6.332 13.9886 6.578 13.6166 6.89L12.8966 5.594C13.3886 5.198 13.9766 4.898 14.6606 4.694C15.3446 4.478 16.0706 4.37 16.8386 4.37ZM16.4426 12.776C17.1026 12.776 17.6726 12.632 18.1526 12.344C18.6326 12.044 18.9806 11.624 19.1966 11.084V9.752H16.5326C15.0686 9.752 14.3366 10.244 14.3366 11.228C14.3366 11.708 14.5226 12.086 14.8946 12.362C15.2666 12.638 15.7826 12.776 16.4426 12.776ZM25.7784 6.062C26.0784 5.51 26.5224 5.09 27.1104 4.802C27.6984 4.514 28.4124 4.37 29.2524 4.37V6.044C29.1564 6.032 29.0244 6.026 28.8564 6.026C27.9204 6.026 27.1824 6.308 26.6424 6.872C26.1144 7.424 25.8504 8.216 25.8504 9.248V14H24.1224V4.46H25.7784V6.062ZM39.9163 9.284C39.9163 9.416 39.9043 9.59 39.8803 9.806H32.1403C32.2483 10.646 32.6143 11.324 33.2383 11.84C33.8743 12.344 34.6603 12.596 35.5963 12.596C36.7363 12.596 37.6543 12.212 38.3503 11.444L39.3043 12.56C38.8723 13.064 38.3323 13.448 37.6843 13.712C37.0483 13.976 36.3343 14.108 35.5423 14.108C34.5343 14.108 33.6403 13.904 32.8603 13.496C32.0803 13.076 31.4743 12.494 31.0423 11.75C30.6223 11.006 30.4123 10.166 30.4123 9.23C30.4123 8.306 30.6163 7.472 31.0243 6.728C31.4443 5.984 32.0143 5.408 32.7343 5C33.4663 4.58 34.2883 4.37 35.2003 4.37C36.1123 4.37 36.9223 4.58 37.6303 5C38.3503 5.408 38.9083 5.984 39.3043 6.728C39.7123 7.472 39.9163 8.324 39.9163 9.284ZM35.2003 5.828C34.3723 5.828 33.6763 6.08 33.1123 6.584C32.5603 7.088 32.2363 7.748 32.1403 8.564H38.2603C38.1643 7.76 37.8343 7.106 37.2703 6.602C36.7183 6.086 36.0283 5.828 35.2003 5.828ZM47.4097 4.37C48.6217 4.37 49.5817 4.724 50.2897 5.432C51.0097 6.128 51.3697 7.154 51.3697 8.51V14H49.6417V8.708C49.6417 7.784 49.4197 7.088 48.9757 6.62C48.5317 6.152 47.8957 5.918 47.0677 5.918C46.1317 5.918 45.3937 6.194 44.8537 6.746C44.3137 7.286 44.0437 8.066 44.0437 9.086V14H42.3157V4.46H43.9717V5.9C44.3197 5.408 44.7877 5.03 45.3757 4.766C45.9757 4.502 46.6537 4.37 47.4097 4.37ZM59.9317 13.442C59.6797 13.658 59.3677 13.826 58.9957 13.946C58.6237 14.054 58.2397 14.108 57.8437 14.108C56.8837 14.108 56.1397 13.85 55.6117 13.334C55.0837 12.818 54.8197 12.08 54.8197 11.12V5.882H53.1997V4.46H54.8197V2.372H56.5477V4.46H59.2837V5.882H56.5477V11.048C56.5477 11.564 56.6737 11.96 56.9257 12.236C57.1897 12.512 57.5617 12.65 58.0417 12.65C58.5697 12.65 59.0197 12.5 59.3917 12.2L59.9317 13.442ZM62.4528 0.536C62.7888 0.536 63.0648 0.655999 63.2808 0.895999C63.5088 1.124 63.6228 1.412 63.6228 1.76C63.6228 1.94 63.6048 2.12 63.5688 2.3C63.5328 2.468 63.4548 2.714 63.3348 3.038L62.4708 5.558H61.3368L62.0028 2.876C61.7748 2.792 61.5888 2.654 61.4448 2.462C61.3128 2.258 61.2468 2.024 61.2468 1.76C61.2468 1.4 61.3608 1.106 61.5888 0.877999C61.8168 0.649999 62.1048 0.536 62.4528 0.536ZM68.5361 14.108C67.7561 14.108 67.0061 14.006 66.2861 13.802C65.5661 13.586 65.0021 13.316 64.5941 12.992L65.3141 11.624C65.7341 11.924 66.2441 12.164 66.8441 12.344C67.4441 12.524 68.0501 12.614 68.6621 12.614C70.1741 12.614 70.9301 12.182 70.9301 11.318C70.9301 11.03 70.8281 10.802 70.6241 10.634C70.4201 10.466 70.1621 10.346 69.8501 10.274C69.5501 10.19 69.1181 10.1 68.5541 10.004C67.7861 9.884 67.1561 9.746 66.6641 9.59C66.1841 9.434 65.7701 9.17 65.4221 8.798C65.0741 8.426 64.9001 7.904 64.9001 7.232C64.9001 6.368 65.2601 5.678 65.9801 5.162C66.7001 4.634 67.6661 4.37 68.8781 4.37C69.5141 4.37 70.1501 4.448 70.7861 4.604C71.4221 4.76 71.9441 4.97 72.3521 5.234L71.6141 6.602C70.8341 6.098 69.9161 5.846 68.8601 5.846C68.1281 5.846 67.5701 5.966 67.1861 6.206C66.8021 6.446 66.6101 6.764 66.6101 7.16C66.6101 7.472 66.7181 7.718 66.9341 7.898C67.1501 8.078 67.4141 8.21 67.7261 8.294C68.0501 8.378 68.5001 8.474 69.0761 8.582C69.8441 8.714 70.4621 8.858 70.9301 9.014C71.4101 9.158 71.8181 9.41 72.1541 9.77C72.4901 10.13 72.6581 10.634 72.6581 11.282C72.6581 12.146 72.2861 12.836 71.5421 13.352C70.8101 13.856 69.8081 14.108 68.5361 14.108ZM84.7097 4.37C85.6337 4.37 86.4617 4.574 87.1937 4.982C87.9257 5.39 88.4957 5.96 88.9037 6.692C89.3237 7.424 89.5337 8.27 89.5337 9.23C89.5337 10.19 89.3237 11.042 88.9037 11.786C88.4957 12.518 87.9257 13.088 87.1937 13.496C86.4617 13.904 85.6337 14.108 84.7097 14.108C84.0257 14.108 83.3957 13.976 82.8197 13.712C82.2557 13.448 81.7757 13.064 81.3797 12.56V17.492H79.6517V4.46H81.3077V5.972C81.6917 5.444 82.1777 5.048 82.7657 4.784C83.3537 4.508 84.0017 4.37 84.7097 4.37ZM84.5657 12.596C85.1777 12.596 85.7237 12.458 86.2037 12.182C86.6957 11.894 87.0797 11.498 87.3557 10.994C87.6437 10.478 87.7877 9.89 87.7877 9.23C87.7877 8.57 87.6437 7.988 87.3557 7.484C87.0797 6.968 86.6957 6.572 86.2037 6.296C85.7237 6.02 85.1777 5.882 84.5657 5.882C83.9657 5.882 83.4197 6.026 82.9277 6.314C82.4477 6.59 82.0637 6.98 81.7757 7.484C81.4997 7.988 81.3617 8.57 81.3617 9.23C81.3617 9.89 81.4997 10.478 81.7757 10.994C82.0517 11.498 82.4357 11.894 82.9277 12.182C83.4197 12.458 83.9657 12.596 84.5657 12.596ZM97.0152 4.37C98.2272 4.37 99.1872 4.724 99.8952 5.432C100.615 6.128 100.975 7.154 100.975 8.51V14H99.2472V8.708C99.2472 7.784 99.0252 7.088 98.5812 6.62C98.1372 6.152 97.5012 5.918 96.6732 5.918C95.7372 5.918 94.9992 6.194 94.4592 6.746C93.9192 7.286 93.6492 8.066 93.6492 9.086V14H91.9212V0.643999H93.6492V5.81C94.0092 5.354 94.4772 5 95.0532 4.748C95.6412 4.496 96.2952 4.37 97.0152 4.37ZM108.312 14.108C107.364 14.108 106.512 13.898 105.756 13.478C105 13.058 104.406 12.482 103.974 11.75C103.554 11.006 103.344 10.166 103.344 9.23C103.344 8.294 103.554 7.46 103.974 6.728C104.406 5.984 105 5.408 105.756 5C106.512 4.58 107.364 4.37 108.312 4.37C109.26 4.37 110.106 4.58 110.85 5C111.606 5.408 112.194 5.984 112.614 6.728C113.046 7.46 113.262 8.294 113.262 9.23C113.262 10.166 113.046 11.006 112.614 11.75C112.194 12.482 111.606 13.058 110.85 13.478C110.106 13.898 109.26 14.108 108.312 14.108ZM108.312 12.596C108.924 12.596 109.47 12.458 109.95 12.182C110.442 11.894 110.826 11.498 111.102 10.994C111.378 10.478 111.516 9.89 111.516 9.23C111.516 8.57 111.378 7.988 111.102 7.484C110.826 6.968 110.442 6.572 109.95 6.296C109.47 6.02 108.924 5.882 108.312 5.882C107.7 5.882 107.148 6.02 106.656 6.296C106.176 6.572 105.792 6.968 105.504 7.484C105.228 7.988 105.09 8.57 105.09 9.23C105.09 9.89 105.228 10.478 105.504 10.994C105.792 11.498 106.176 11.894 106.656 12.182C107.148 12.458 107.7 12.596 108.312 12.596ZM120.746 4.37C121.958 4.37 122.918 4.724 123.626 5.432C124.346 6.128 124.706 7.154 124.706 8.51V14H122.978V8.708C122.978 7.784 122.756 7.088 122.312 6.62C121.868 6.152 121.232 5.918 120.404 5.918C119.468 5.918 118.73 6.194 118.19 6.746C117.65 7.286 117.38 8.066 117.38 9.086V14H115.652V4.46H117.308V5.9C117.656 5.408 118.124 5.03 118.712 4.766C119.312 4.502 119.99 4.37 120.746 4.37ZM136.578 9.284C136.578 9.416 136.566 9.59 136.542 9.806H128.802C128.91 10.646 129.276 11.324 129.9 11.84C130.536 12.344 131.322 12.596 132.258 12.596C133.398 12.596 134.316 12.212 135.012 11.444L135.966 12.56C135.534 13.064 134.994 13.448 134.346 13.712C133.71 13.976 132.996 14.108 132.204 14.108C131.196 14.108 130.302 13.904 129.522 13.496C128.742 13.076 128.136 12.494 127.704 11.75C127.284 11.006 127.074 10.166 127.074 9.23C127.074 8.306 127.278 7.472 127.686 6.728C128.106 5.984 128.676 5.408 129.396 5C130.128 4.58 130.95 4.37 131.862 4.37C132.774 4.37 133.584 4.58 134.292 5C135.012 5.408 135.57 5.984 135.966 6.728C136.374 7.472 136.578 8.324 136.578 9.284ZM131.862 5.828C131.034 5.828 130.338 6.08 129.774 6.584C129.222 7.088 128.898 7.748 128.802 8.564H134.922C134.826 7.76 134.496 7.106 133.932 6.602C133.38 6.086 132.69 5.828 131.862 5.828ZM153.74 4.37C154.952 4.37 155.912 4.724 156.62 5.432C157.34 6.128 157.7 7.154 157.7 8.51V14H155.972V8.708C155.972 7.784 155.75 7.088 155.306 6.62C154.862 6.152 154.226 5.918 153.398 5.918C152.462 5.918 151.724 6.194 151.184 6.746C150.644 7.286 150.374 8.066 150.374 9.086V14H148.646V4.46H150.302V5.9C150.65 5.408 151.118 5.03 151.706 4.766C152.306 4.502 152.984 4.37 153.74 4.37ZM169.79 4.46V14H168.152V12.56C167.804 13.052 167.342 13.436 166.766 13.712C166.202 13.976 165.584 14.108 164.912 14.108C163.64 14.108 162.638 13.76 161.906 13.064C161.174 12.356 160.808 11.318 160.808 9.95V4.46H162.536V9.752C162.536 10.676 162.758 11.378 163.202 11.858C163.646 12.326 164.282 12.56 165.11 12.56C166.022 12.56 166.742 12.284 167.27 11.732C167.798 11.18 168.062 10.4 168.062 9.392V4.46H169.79ZM185.013 4.37C186.213 4.37 187.161 4.718 187.857 5.414C188.565 6.11 188.919 7.142 188.919 8.51V14H187.191V8.708C187.191 7.784 186.975 7.088 186.543 6.62C186.123 6.152 185.517 5.918 184.725 5.918C183.849 5.918 183.153 6.194 182.637 6.746C182.121 7.286 181.863 8.066 181.863 9.086V14H180.135V8.708C180.135 7.784 179.919 7.088 179.487 6.62C179.067 6.152 178.461 5.918 177.669 5.918C176.793 5.918 176.097 6.194 175.581 6.746C175.065 7.286 174.807 8.066 174.807 9.086V14H173.079V4.46H174.735V5.882C175.083 5.39 175.539 5.018 176.103 4.766C176.667 4.502 177.309 4.37 178.029 4.37C178.773 4.37 179.433 4.52 180.009 4.82C180.585 5.12 181.029 5.558 181.341 6.134C181.701 5.582 182.199 5.15 182.835 4.838C183.483 4.526 184.209 4.37 185.013 4.37ZM197.157 4.37C198.081 4.37 198.909 4.574 199.641 4.982C200.373 5.39 200.943 5.96 201.351 6.692C201.771 7.424 201.981 8.27 201.981 9.23C201.981 10.19 201.771 11.042 201.351 11.786C200.943 12.518 200.373 13.088 199.641 13.496C198.909 13.904 198.081 14.108 197.157 14.108C196.449 14.108 195.801 13.97 195.213 13.694C194.625 13.418 194.139 13.016 193.755 12.488V14H192.099V0.643999H193.827V5.9C194.211 5.396 194.691 5.018 195.267 4.766C195.843 4.502 196.473 4.37 197.157 4.37ZM197.013 12.596C197.625 12.596 198.171 12.458 198.651 12.182C199.143 11.894 199.527 11.498 199.803 10.994C200.091 10.478 200.235 9.89 200.235 9.23C200.235 8.57 200.091 7.988 199.803 7.484C199.527 6.968 199.143 6.572 198.651 6.296C198.171 6.02 197.625 5.882 197.013 5.882C196.413 5.882 195.867 6.02 195.375 6.296C194.883 6.572 194.499 6.968 194.223 7.484C193.947 7.988 193.809 8.57 193.809 9.23C193.809 9.89 193.947 10.478 194.223 10.994C194.499 11.498 194.883 11.894 195.375 12.182C195.867 12.458 196.413 12.596 197.013 12.596ZM212.99 9.284C212.99 9.416 212.978 9.59 212.954 9.806H205.214C205.322 10.646 205.688 11.324 206.312 11.84C206.948 12.344 207.734 12.596 208.67 12.596C209.81 12.596 210.728 12.212 211.424 11.444L212.378 12.56C211.946 13.064 211.406 13.448 210.758 13.712C210.122 13.976 209.408 14.108 208.616 14.108C207.608 14.108 206.714 13.904 205.934 13.496C205.154 13.076 204.548 12.494 204.116 11.75C203.696 11.006 203.486 10.166 203.486 9.23C203.486 8.306 203.69 7.472 204.098 6.728C204.518 5.984 205.088 5.408 205.808 5C206.54 4.58 207.362 4.37 208.274 4.37C209.186 4.37 209.996 4.58 210.704 5C211.424 5.408 211.982 5.984 212.378 6.728C212.786 7.472 212.99 8.324 212.99 9.284ZM208.274 5.828C207.446 5.828 206.75 6.08 206.186 6.584C205.634 7.088 205.31 7.748 205.214 8.564H211.334C211.238 7.76 210.908 7.106 210.344 6.602C209.792 6.086 209.102 5.828 208.274 5.828ZM217.046 6.062C217.346 5.51 217.79 5.09 218.378 4.802C218.966 4.514 219.68 4.37 220.52 4.37V6.044C220.424 6.032 220.292 6.026 220.124 6.026C219.188 6.026 218.45 6.308 217.91 6.872C217.382 7.424 217.118 8.216 217.118 9.248V14H215.39V4.46H217.046V6.062Z" fill="#F8F8F8"/>
<path d="M230.685 3.992L232.827 5.198L232.269 6.188L230.091 4.91L230.109 7.358H229.029L229.047 4.91L226.869 6.188L226.311 5.198L228.471 3.992L226.311 2.804L226.869 1.796L229.047 3.074L229.029 0.643999H230.109L230.091 3.074L232.269 1.796L232.827 2.804L230.685 3.992Z" fill="#EB5757"/>
</svg>
