<svg width="150" height="15" viewBox="0 0 150 15" fill="none" xmlns="http://www.w3.org/2000/svg">
<path d="M5.804 1.4C7.436 1.4 8.72 1.79 9.656 2.57C10.592 3.35 11.06 4.424 11.06 5.792C11.06 7.16 10.592 8.234 9.656 9.014C8.72 9.794 7.436 10.184 5.804 10.184H2.69V14H0.89V1.4H5.804ZM5.75 8.618C6.89 8.618 7.76 8.378 8.36 7.898C8.96 7.406 9.26 6.704 9.26 5.792C9.26 4.88 8.96 4.184 8.36 3.704C7.76 3.212 6.89 2.966 5.75 2.966H2.69V8.618H5.75ZM18.7222 4.37C19.9342 4.37 20.8942 4.724 21.6022 5.432C22.3222 6.128 22.6822 7.154 22.6822 8.51V14H20.9542V8.708C20.9542 7.784 20.7322 7.088 20.2882 6.62C19.8442 6.152 19.2082 5.918 18.3802 5.918C17.4442 5.918 16.7062 6.194 16.1662 6.746C15.6262 7.286 15.3562 8.066 15.3562 9.086V14H13.6282V0.643999H15.3562V5.81C15.7162 5.354 16.1842 5 16.7602 4.748C17.3482 4.496 18.0022 4.37 18.7222 4.37ZM30.0189 14.108C29.0709 14.108 28.2189 13.898 27.4629 13.478C26.7069 13.058 26.1129 12.482 25.6809 11.75C25.2609 11.006 25.0509 10.166 25.0509 9.23C25.0509 8.294 25.2609 7.46 25.6809 6.728C26.1129 5.984 26.7069 5.408 27.4629 5C28.2189 4.58 29.0709 4.37 30.0189 4.37C30.9669 4.37 31.8129 4.58 32.5569 5C33.3129 5.408 33.9009 5.984 34.3209 6.728C34.7529 7.46 34.9689 8.294 34.9689 9.23C34.9689 10.166 34.7529 11.006 34.3209 11.75C33.9009 12.482 33.3129 13.058 32.5569 13.478C31.8129 13.898 30.9669 14.108 30.0189 14.108ZM30.0189 12.596C30.6309 12.596 31.1769 12.458 31.6569 12.182C32.1489 11.894 32.5329 11.498 32.8089 10.994C33.0849 10.478 33.2229 9.89 33.2229 9.23C33.2229 8.57 33.0849 7.988 32.8089 7.484C32.5329 6.968 32.1489 6.572 31.6569 6.296C31.1769 6.02 30.6309 5.882 30.0189 5.882C29.4069 5.882 28.8549 6.02 28.3629 6.296C27.8829 6.572 27.4989 6.968 27.2109 7.484C26.9349 7.988 26.7969 8.57 26.7969 9.23C26.7969 9.89 26.9349 10.478 27.2109 10.994C27.4989 11.498 27.8829 11.894 28.3629 12.182C28.8549 12.458 29.4069 12.596 30.0189 12.596ZM42.4527 4.37C43.6647 4.37 44.6247 4.724 45.3327 5.432C46.0527 6.128 46.4127 7.154 46.4127 8.51V14H44.6847V8.708C44.6847 7.784 44.4627 7.088 44.0187 6.62C43.5747 6.152 42.9387 5.918 42.1107 5.918C41.1747 5.918 40.4367 6.194 39.8967 6.746C39.3567 7.286 39.0867 8.066 39.0867 9.086V14H37.3587V4.46H39.0147V5.9C39.3627 5.408 39.8307 5.03 40.4187 4.766C41.0187 4.502 41.6967 4.37 42.4527 4.37ZM58.2854 9.284C58.2854 9.416 58.2734 9.59 58.2494 9.806H50.5094C50.6174 10.646 50.9834 11.324 51.6074 11.84C52.2434 12.344 53.0294 12.596 53.9654 12.596C55.1054 12.596 56.0234 12.212 56.7194 11.444L57.6734 12.56C57.2414 13.064 56.7014 13.448 56.0534 13.712C55.4174 13.976 54.7034 14.108 53.9114 14.108C52.9034 14.108 52.0094 13.904 51.2294 13.496C50.4494 13.076 49.8434 12.494 49.4114 11.75C48.9914 11.006 48.7814 10.166 48.7814 9.23C48.7814 8.306 48.9854 7.472 49.3934 6.728C49.8134 5.984 50.3834 5.408 51.1034 5C51.8354 4.58 52.6574 4.37 53.5694 4.37C54.4814 4.37 55.2914 4.58 55.9994 5C56.7194 5.408 57.2774 5.984 57.6734 6.728C58.0814 7.472 58.2854 8.324 58.2854 9.284ZM53.5694 5.828C52.7414 5.828 52.0454 6.08 51.4814 6.584C50.9294 7.088 50.6054 7.748 50.5094 8.564H56.6294C56.5334 7.76 56.2034 7.106 55.6394 6.602C55.0874 6.086 54.3974 5.828 53.5694 5.828ZM70.6129 4.37C71.8249 4.37 72.7849 4.724 73.4929 5.432C74.2129 6.128 74.5729 7.154 74.5729 8.51V14H72.8449V8.708C72.8449 7.784 72.6229 7.088 72.1789 6.62C71.7349 6.152 71.0989 5.918 70.2709 5.918C69.3349 5.918 68.5969 6.194 68.0569 6.746C67.5169 7.286 67.2469 8.066 67.2469 9.086V14H65.5189V4.46H67.1749V5.9C67.5229 5.408 67.9909 5.03 68.5789 4.766C69.1789 4.502 69.8569 4.37 70.6129 4.37ZM86.6628 4.46V14H85.0248V12.56C84.6768 13.052 84.2148 13.436 83.6388 13.712C83.0748 13.976 82.4568 14.108 81.7848 14.108C80.5128 14.108 79.5108 13.76 78.7788 13.064C78.0468 12.356 77.6808 11.318 77.6808 9.95V4.46H79.4088V9.752C79.4088 10.676 79.6308 11.378 80.0748 11.858C80.5188 12.326 81.1548 12.56 81.9828 12.56C82.8948 12.56 83.6148 12.284 84.1428 11.732C84.6708 11.18 84.9348 10.4 84.9348 9.392V4.46H86.6628ZM101.886 4.37C103.086 4.37 104.034 4.718 104.73 5.414C105.438 6.11 105.792 7.142 105.792 8.51V14H104.064V8.708C104.064 7.784 103.848 7.088 103.416 6.62C102.996 6.152 102.39 5.918 101.598 5.918C100.722 5.918 100.026 6.194 99.5105 6.746C98.9945 7.286 98.7365 8.066 98.7365 9.086V14H97.0085V8.708C97.0085 7.784 96.7925 7.088 96.3605 6.62C95.9405 6.152 95.3345 5.918 94.5425 5.918C93.6665 5.918 92.9705 6.194 92.4545 6.746C91.9385 7.286 91.6805 8.066 91.6805 9.086V14H89.9525V4.46H91.6085V5.882C91.9565 5.39 92.4125 5.018 92.9765 4.766C93.5405 4.502 94.1825 4.37 94.9025 4.37C95.6465 4.37 96.3065 4.52 96.8825 4.82C97.4585 5.12 97.9025 5.558 98.2145 6.134C98.5745 5.582 99.0725 5.15 99.7085 4.838C100.356 4.526 101.082 4.37 101.886 4.37ZM114.03 4.37C114.954 4.37 115.782 4.574 116.514 4.982C117.246 5.39 117.816 5.96 118.224 6.692C118.644 7.424 118.854 8.27 118.854 9.23C118.854 10.19 118.644 11.042 118.224 11.786C117.816 12.518 117.246 13.088 116.514 13.496C115.782 13.904 114.954 14.108 114.03 14.108C113.322 14.108 112.674 13.97 112.086 13.694C111.498 13.418 111.012 13.016 110.628 12.488V14H108.972V0.643999H110.7V5.9C111.084 5.396 111.564 5.018 112.14 4.766C112.716 4.502 113.346 4.37 114.03 4.37ZM113.886 12.596C114.498 12.596 115.044 12.458 115.524 12.182C116.016 11.894 116.4 11.498 116.676 10.994C116.964 10.478 117.108 9.89 117.108 9.23C117.108 8.57 116.964 7.988 116.676 7.484C116.4 6.968 116.016 6.572 115.524 6.296C115.044 6.02 114.498 5.882 113.886 5.882C113.286 5.882 112.74 6.02 112.248 6.296C111.756 6.572 111.372 6.968 111.096 7.484C110.82 7.988 110.682 8.57 110.682 9.23C110.682 9.89 110.82 10.478 111.096 10.994C111.372 11.498 111.756 11.894 112.248 12.182C112.74 12.458 113.286 12.596 113.886 12.596ZM129.864 9.284C129.864 9.416 129.852 9.59 129.828 9.806H122.088C122.196 10.646 122.562 11.324 123.186 11.84C123.822 12.344 124.608 12.596 125.544 12.596C126.684 12.596 127.602 12.212 128.298 11.444L129.252 12.56C128.82 13.064 128.28 13.448 127.632 13.712C126.996 13.976 126.282 14.108 125.49 14.108C124.482 14.108 123.588 13.904 122.808 13.496C122.028 13.076 121.422 12.494 120.99 11.75C120.57 11.006 120.36 10.166 120.36 9.23C120.36 8.306 120.564 7.472 120.972 6.728C121.392 5.984 121.962 5.408 122.682 5C123.414 4.58 124.236 4.37 125.148 4.37C126.06 4.37 126.87 4.58 127.578 5C128.298 5.408 128.856 5.984 129.252 6.728C129.66 7.472 129.864 8.324 129.864 9.284ZM125.148 5.828C124.32 5.828 123.624 6.08 123.06 6.584C122.508 7.088 122.184 7.748 122.088 8.564H128.208C128.112 7.76 127.782 7.106 127.218 6.602C126.666 6.086 125.976 5.828 125.148 5.828ZM133.919 6.062C134.219 5.51 134.663 5.09 135.251 4.802C135.839 4.514 136.553 4.37 137.393 4.37V6.044C137.297 6.032 137.165 6.026 136.997 6.026C136.061 6.026 135.323 6.308 134.783 6.872C134.255 7.424 133.991 8.216 133.991 9.248V14H132.263V4.46H133.919V6.062Z" fill="#F8F8F8"/>
<path d="M147.558 3.992L149.7 5.198L149.142 6.188L146.964 4.91L146.982 7.358H145.902L145.92 4.91L143.742 6.188L143.184 5.198L145.344 3.992L143.184 2.804L143.742 1.796L145.92 3.074L145.902 0.643999H146.982L146.964 3.074L149.142 1.796L149.7 2.804L147.558 3.992Z" fill="#EB5757"/>
</svg>
