<svg width="76" height="18" viewBox="0 0 76 18" fill="none" xmlns="http://www.w3.org/2000/svg">
<path d="M9.314 14L6.596 10.13C6.26 10.154 5.996 10.166 5.804 10.166H2.69V14H0.89V1.4H5.804C7.436 1.4 8.72 1.79 9.656 2.57C10.592 3.35 11.06 4.424 11.06 5.792C11.06 6.764 10.82 7.592 10.34 8.276C9.86 8.96 9.176 9.458 8.288 9.77L11.276 14H9.314ZM5.75 8.636C6.89 8.636 7.76 8.39 8.36 7.898C8.96 7.406 9.26 6.704 9.26 5.792C9.26 4.88 8.96 4.184 8.36 3.704C7.76 3.212 6.89 2.966 5.75 2.966H2.69V8.636H5.75ZM22.3381 9.284C22.3381 9.416 22.3261 9.59 22.3021 9.806H14.5621C14.6701 10.646 15.0361 11.324 15.6601 11.84C16.2961 12.344 17.0821 12.596 18.0181 12.596C19.1581 12.596 20.0761 12.212 20.7721 11.444L21.7261 12.56C21.2941 13.064 20.7541 13.448 20.1061 13.712C19.4701 13.976 18.7561 14.108 17.9641 14.108C16.9561 14.108 16.0621 13.904 15.2821 13.496C14.5021 13.076 13.8961 12.494 13.4641 11.75C13.0441 11.006 12.8341 10.166 12.8341 9.23C12.8341 8.306 13.0381 7.472 13.4461 6.728C13.8661 5.984 14.4361 5.408 15.1561 5C15.8881 4.58 16.7101 4.37 17.6221 4.37C18.5341 4.37 19.3441 4.58 20.0521 5C20.7721 5.408 21.3301 5.984 21.7261 6.728C22.1341 7.472 22.3381 8.324 22.3381 9.284ZM17.6221 5.828C16.7941 5.828 16.0981 6.08 15.5341 6.584C14.9821 7.088 14.6581 7.748 14.5621 8.564H20.6821C20.5861 7.76 20.2561 7.106 19.6921 6.602C19.1401 6.086 18.4501 5.828 17.6221 5.828ZM33.8636 4.46V12.704C33.8636 14.372 33.4496 15.602 32.6216 16.394C31.7936 17.198 30.5576 17.6 28.9136 17.6C28.0136 17.6 27.1556 17.474 26.3396 17.222C25.5236 16.982 24.8636 16.634 24.3596 16.178L25.1876 14.846C25.6316 15.23 26.1776 15.53 26.8256 15.746C27.4856 15.974 28.1636 16.088 28.8596 16.088C29.9756 16.088 30.7976 15.824 31.3256 15.296C31.8656 14.768 32.1356 13.964 32.1356 12.884V12.128C31.7276 12.62 31.2236 12.992 30.6236 13.244C30.0356 13.484 29.3936 13.604 28.6976 13.604C27.7856 13.604 26.9576 13.412 26.2136 13.028C25.4816 12.632 24.9056 12.086 24.4856 11.39C24.0656 10.682 23.8556 9.878 23.8556 8.978C23.8556 8.078 24.0656 7.28 24.4856 6.584C24.9056 5.876 25.4816 5.33 26.2136 4.946C26.9576 4.562 27.7856 4.37 28.6976 4.37C29.4176 4.37 30.0836 4.502 30.6956 4.766C31.3196 5.03 31.8296 5.42 32.2256 5.936V4.46H33.8636ZM28.8956 12.092C29.5196 12.092 30.0776 11.96 30.5696 11.696C31.0736 11.432 31.4636 11.066 31.7396 10.598C32.0276 10.118 32.1716 9.578 32.1716 8.978C32.1716 8.054 31.8656 7.31 31.2536 6.746C30.6416 6.17 29.8556 5.882 28.8956 5.882C27.9236 5.882 27.1316 6.17 26.5196 6.746C25.9076 7.31 25.6016 8.054 25.6016 8.978C25.6016 9.578 25.7396 10.118 26.0156 10.598C26.3036 11.066 26.6936 11.432 27.1856 11.696C27.6896 11.96 28.2596 12.092 28.8956 12.092ZM37.1653 4.46H38.8933V14H37.1653V4.46ZM38.0293 2.624C37.6933 2.624 37.4113 2.516 37.1833 2.3C36.9673 2.084 36.8593 1.82 36.8593 1.508C36.8593 1.196 36.9673 0.931999 37.1833 0.715999C37.4113 0.487999 37.6933 0.373999 38.0293 0.373999C38.3653 0.373999 38.6413 0.482 38.8573 0.698C39.0853 0.901999 39.1993 1.16 39.1993 1.472C39.1993 1.796 39.0853 2.072 38.8573 2.3C38.6413 2.516 38.3653 2.624 38.0293 2.624ZM46.2787 14.108C45.3307 14.108 44.4787 13.898 43.7227 13.478C42.9667 13.058 42.3727 12.482 41.9407 11.75C41.5207 11.006 41.3107 10.166 41.3107 9.23C41.3107 8.294 41.5207 7.46 41.9407 6.728C42.3727 5.984 42.9667 5.408 43.7227 5C44.4787 4.58 45.3307 4.37 46.2787 4.37C47.2267 4.37 48.0727 4.58 48.8167 5C49.5727 5.408 50.1607 5.984 50.5807 6.728C51.0127 7.46 51.2287 8.294 51.2287 9.23C51.2287 10.166 51.0127 11.006 50.5807 11.75C50.1607 12.482 49.5727 13.058 48.8167 13.478C48.0727 13.898 47.2267 14.108 46.2787 14.108ZM46.2787 12.596C46.8907 12.596 47.4367 12.458 47.9167 12.182C48.4087 11.894 48.7927 11.498 49.0687 10.994C49.3447 10.478 49.4827 9.89 49.4827 9.23C49.4827 8.57 49.3447 7.988 49.0687 7.484C48.7927 6.968 48.4087 6.572 47.9167 6.296C47.4367 6.02 46.8907 5.882 46.2787 5.882C45.6667 5.882 45.1147 6.02 44.6227 6.296C44.1427 6.572 43.7587 6.968 43.4707 7.484C43.1947 7.988 43.0567 8.57 43.0567 9.23C43.0567 9.89 43.1947 10.478 43.4707 10.994C43.7587 11.498 44.1427 11.894 44.6227 12.182C45.1147 12.458 45.6667 12.596 46.2787 12.596ZM58.7125 4.37C59.9245 4.37 60.8845 4.724 61.5925 5.432C62.3125 6.128 62.6725 7.154 62.6725 8.51V14H60.9445V8.708C60.9445 7.784 60.7225 7.088 60.2785 6.62C59.8345 6.152 59.1985 5.918 58.3705 5.918C57.4345 5.918 56.6965 6.194 56.1565 6.746C55.6165 7.286 55.3465 8.066 55.3465 9.086V14H53.6185V4.46H55.2745V5.9C55.6225 5.408 56.0905 5.03 56.6785 4.766C57.2785 4.502 57.9565 4.37 58.7125 4.37Z" fill="#F8F8F8"/>
<path d="M73.7824 3.992L75.9244 5.198L75.3664 6.188L73.1884 4.91L73.2064 7.358H72.1264L72.1444 4.91L69.9664 6.188L69.4084 5.198L71.5684 3.992L69.4084 2.804L69.9664 1.796L72.1444 3.074L72.1264 0.643999H73.2064L73.1884 3.074L75.3664 1.796L75.9244 2.804L73.7824 3.992Z" fill="#EB5757"/>
</svg>
