<svg width="143" height="18" viewBox="0 0 143 18" fill="none" xmlns="http://www.w3.org/2000/svg">
<path d="M5.562 14.144C4.614 14.144 3.696 14 2.808 13.712C1.932 13.412 1.242 13.028 0.738 12.56L1.404 11.156C1.884 11.588 2.496 11.942 3.24 12.218C3.996 12.482 4.77 12.614 5.562 12.614C6.606 12.614 7.386 12.44 7.902 12.092C8.418 11.732 8.676 11.258 8.676 10.67C8.676 10.238 8.532 9.89 8.244 9.626C7.968 9.35 7.62 9.14 7.2 8.996C6.792 8.852 6.21 8.69 5.454 8.51C4.506 8.282 3.738 8.054 3.15 7.826C2.574 7.598 2.076 7.25 1.656 6.782C1.248 6.302 1.044 5.66 1.044 4.856C1.044 4.184 1.218 3.578 1.566 3.038C1.926 2.498 2.466 2.066 3.186 1.742C3.906 1.418 4.8 1.256 5.868 1.256C6.612 1.256 7.344 1.352 8.064 1.544C8.784 1.736 9.402 2.012 9.918 2.372L9.324 3.812C8.796 3.476 8.232 3.224 7.632 3.056C7.032 2.876 6.444 2.786 5.868 2.786C4.848 2.786 4.08 2.972 3.564 3.344C3.06 3.716 2.808 4.196 2.808 4.784C2.808 5.216 2.952 5.57 3.24 5.846C3.528 6.11 3.882 6.32 4.302 6.476C4.734 6.62 5.316 6.776 6.048 6.944C6.996 7.172 7.758 7.4 8.334 7.628C8.91 7.856 9.402 8.204 9.81 8.672C10.23 9.14 10.44 9.77 10.44 10.562C10.44 11.222 10.26 11.828 9.9 12.38C9.54 12.92 8.994 13.352 8.262 13.676C7.53 13.988 6.63 14.144 5.562 14.144ZM21.4397 9.284C21.4397 9.416 21.4277 9.59 21.4037 9.806H13.6637C13.7717 10.646 14.1377 11.324 14.7617 11.84C15.3977 12.344 16.1837 12.596 17.1197 12.596C18.2597 12.596 19.1777 12.212 19.8737 11.444L20.8277 12.56C20.3957 13.064 19.8557 13.448 19.2077 13.712C18.5717 13.976 17.8577 14.108 17.0657 14.108C16.0577 14.108 15.1637 13.904 14.3837 13.496C13.6037 13.076 12.9977 12.494 12.5657 11.75C12.1457 11.006 11.9357 10.166 11.9357 9.23C11.9357 8.306 12.1397 7.472 12.5477 6.728C12.9677 5.984 13.5377 5.408 14.2577 5C14.9897 4.58 15.8117 4.37 16.7237 4.37C17.6357 4.37 18.4457 4.58 19.1537 5C19.8737 5.408 20.4317 5.984 20.8277 6.728C21.2357 7.472 21.4397 8.324 21.4397 9.284ZM16.7237 5.828C15.8957 5.828 15.1997 6.08 14.6357 6.584C14.0837 7.088 13.7597 7.748 13.6637 8.564H19.7837C19.6877 7.76 19.3577 7.106 18.7937 6.602C18.2417 6.086 17.5517 5.828 16.7237 5.828ZM25.4952 6.062C25.7952 5.51 26.2392 5.09 26.8272 4.802C27.4152 4.514 28.1292 4.37 28.9692 4.37V6.044C28.8732 6.032 28.7412 6.026 28.5732 6.026C27.6372 6.026 26.8992 6.308 26.3592 6.872C25.8312 7.424 25.5672 8.216 25.5672 9.248V14H23.8392V4.46H25.4952V6.062ZM31.0989 4.46H32.8269V14H31.0989V4.46ZM31.9629 2.624C31.6269 2.624 31.3449 2.516 31.1169 2.3C30.9009 2.084 30.7929 1.82 30.7929 1.508C30.7929 1.196 30.9009 0.931999 31.1169 0.715999C31.3449 0.487999 31.6269 0.373999 31.9629 0.373999C32.2989 0.373999 32.5749 0.482 32.7909 0.698C33.0189 0.901999 33.1329 1.16 33.1329 1.472C33.1329 1.796 33.0189 2.072 32.7909 2.3C32.5749 2.516 32.2989 2.624 31.9629 2.624ZM39.6003 4.37C40.9203 4.37 41.9283 4.694 42.6243 5.342C43.3323 5.99 43.6863 6.956 43.6863 8.24V14H42.0483V12.74C41.7603 13.184 41.3463 13.526 40.8063 13.766C40.2783 13.994 39.6483 14.108 38.9163 14.108C37.8483 14.108 36.9903 13.85 36.3423 13.334C35.7063 12.818 35.3883 12.14 35.3883 11.3C35.3883 10.46 35.6943 9.788 36.3063 9.284C36.9183 8.768 37.8903 8.51 39.2223 8.51H41.9583V8.168C41.9583 7.424 41.7423 6.854 41.3103 6.458C40.8783 6.062 40.2423 5.864 39.4023 5.864C38.8383 5.864 38.2863 5.96 37.7463 6.152C37.2063 6.332 36.7503 6.578 36.3783 6.89L35.6583 5.594C36.1503 5.198 36.7383 4.898 37.4223 4.694C38.1063 4.478 38.8323 4.37 39.6003 4.37ZM39.2043 12.776C39.8643 12.776 40.4343 12.632 40.9143 12.344C41.3943 12.044 41.7423 11.624 41.9583 11.084V9.752H39.2943C37.8303 9.752 37.0983 10.244 37.0983 11.228C37.0983 11.708 37.2843 12.086 37.6563 12.362C38.0283 12.638 38.5443 12.776 39.2043 12.776ZM56.8841 1.4C58.5161 1.4 59.8001 1.79 60.7361 2.57C61.6721 3.35 62.1401 4.424 62.1401 5.792C62.1401 7.16 61.6721 8.234 60.7361 9.014C59.8001 9.794 58.5161 10.184 56.8841 10.184H53.7701V14H51.9701V1.4H56.8841ZM56.8301 8.618C57.9701 8.618 58.8401 8.378 59.4401 7.898C60.0401 7.406 60.3401 6.704 60.3401 5.792C60.3401 4.88 60.0401 4.184 59.4401 3.704C58.8401 3.212 57.9701 2.966 56.8301 2.966H53.7701V8.618H56.8301ZM67.9186 4.37C69.2386 4.37 70.2466 4.694 70.9426 5.342C71.6506 5.99 72.0046 6.956 72.0046 8.24V14H70.3666V12.74C70.0786 13.184 69.6646 13.526 69.1246 13.766C68.5966 13.994 67.9666 14.108 67.2346 14.108C66.1666 14.108 65.3086 13.85 64.6606 13.334C64.0246 12.818 63.7066 12.14 63.7066 11.3C63.7066 10.46 64.0126 9.788 64.6246 9.284C65.2366 8.768 66.2086 8.51 67.5406 8.51H70.2766V8.168C70.2766 7.424 70.0606 6.854 69.6286 6.458C69.1966 6.062 68.5606 5.864 67.7206 5.864C67.1566 5.864 66.6046 5.96 66.0646 6.152C65.5246 6.332 65.0686 6.578 64.6966 6.89L63.9766 5.594C64.4686 5.198 65.0566 4.898 65.7406 4.694C66.4246 4.478 67.1506 4.37 67.9186 4.37ZM67.5226 12.776C68.1826 12.776 68.7526 12.632 69.2326 12.344C69.7126 12.044 70.0606 11.624 70.2766 11.084V9.752H67.6126C66.1486 9.752 65.4166 10.244 65.4166 11.228C65.4166 11.708 65.6026 12.086 65.9746 12.362C66.3466 12.638 66.8626 12.776 67.5226 12.776ZM77.9385 14.108C77.1585 14.108 76.4085 14.006 75.6885 13.802C74.9685 13.586 74.4045 13.316 73.9965 12.992L74.7165 11.624C75.1365 11.924 75.6465 12.164 76.2465 12.344C76.8465 12.524 77.4525 12.614 78.0645 12.614C79.5765 12.614 80.3325 12.182 80.3325 11.318C80.3325 11.03 80.2305 10.802 80.0265 10.634C79.8225 10.466 79.5645 10.346 79.2525 10.274C78.9525 10.19 78.5205 10.1 77.9565 10.004C77.1885 9.884 76.5585 9.746 76.0665 9.59C75.5865 9.434 75.1725 9.17 74.8245 8.798C74.4765 8.426 74.3025 7.904 74.3025 7.232C74.3025 6.368 74.6625 5.678 75.3825 5.162C76.1025 4.634 77.0685 4.37 78.2805 4.37C78.9165 4.37 79.5525 4.448 80.1885 4.604C80.8245 4.76 81.3465 4.97 81.7545 5.234L81.0165 6.602C80.2365 6.098 79.3185 5.846 78.2625 5.846C77.5305 5.846 76.9725 5.966 76.5885 6.206C76.2045 6.446 76.0125 6.764 76.0125 7.16C76.0125 7.472 76.1205 7.718 76.3365 7.898C76.5525 8.078 76.8165 8.21 77.1285 8.294C77.4525 8.378 77.9025 8.474 78.4785 8.582C79.2465 8.714 79.8645 8.858 80.3325 9.014C80.8125 9.158 81.2205 9.41 81.5565 9.77C81.8925 10.13 82.0605 10.634 82.0605 11.282C82.0605 12.146 81.6885 12.836 80.9445 13.352C80.2125 13.856 79.2105 14.108 77.9385 14.108ZM86.956 14.108C86.176 14.108 85.426 14.006 84.706 13.802C83.986 13.586 83.422 13.316 83.014 12.992L83.734 11.624C84.154 11.924 84.664 12.164 85.264 12.344C85.864 12.524 86.47 12.614 87.082 12.614C88.594 12.614 89.35 12.182 89.35 11.318C89.35 11.03 89.248 10.802 89.044 10.634C88.84 10.466 88.582 10.346 88.27 10.274C87.97 10.19 87.538 10.1 86.974 10.004C86.206 9.884 85.576 9.746 85.084 9.59C84.604 9.434 84.19 9.17 83.842 8.798C83.494 8.426 83.32 7.904 83.32 7.232C83.32 6.368 83.68 5.678 84.4 5.162C85.12 4.634 86.086 4.37 87.298 4.37C87.934 4.37 88.57 4.448 89.206 4.604C89.842 4.76 90.364 4.97 90.772 5.234L90.034 6.602C89.254 6.098 88.336 5.846 87.28 5.846C86.548 5.846 85.99 5.966 85.606 6.206C85.222 6.446 85.03 6.764 85.03 7.16C85.03 7.472 85.138 7.718 85.354 7.898C85.57 8.078 85.834 8.21 86.146 8.294C86.47 8.378 86.92 8.474 87.496 8.582C88.264 8.714 88.882 8.858 89.35 9.014C89.83 9.158 90.238 9.41 90.574 9.77C90.91 10.13 91.078 10.634 91.078 11.282C91.078 12.146 90.706 12.836 89.962 13.352C89.23 13.856 88.228 14.108 86.956 14.108ZM98.2956 4.37C99.2196 4.37 100.048 4.574 100.78 4.982C101.512 5.39 102.082 5.96 102.49 6.692C102.91 7.424 103.12 8.27 103.12 9.23C103.12 10.19 102.91 11.042 102.49 11.786C102.082 12.518 101.512 13.088 100.78 13.496C100.048 13.904 99.2196 14.108 98.2956 14.108C97.6116 14.108 96.9816 13.976 96.4056 13.712C95.8416 13.448 95.3616 13.064 94.9656 12.56V17.492H93.2376V4.46H94.8936V5.972C95.2776 5.444 95.7636 5.048 96.3516 4.784C96.9396 4.508 97.5876 4.37 98.2956 4.37ZM98.1516 12.596C98.7636 12.596 99.3096 12.458 99.7896 12.182C100.282 11.894 100.666 11.498 100.942 10.994C101.23 10.478 101.374 9.89 101.374 9.23C101.374 8.57 101.23 7.988 100.942 7.484C100.666 6.968 100.282 6.572 99.7896 6.296C99.3096 6.02 98.7636 5.882 98.1516 5.882C97.5516 5.882 97.0056 6.026 96.5136 6.314C96.0336 6.59 95.6496 6.98 95.3616 7.484C95.0856 7.988 94.9476 8.57 94.9476 9.23C94.9476 9.89 95.0856 10.478 95.3616 10.994C95.6376 11.498 96.0216 11.894 96.5136 12.182C97.0056 12.458 97.5516 12.596 98.1516 12.596ZM109.593 14.108C108.645 14.108 107.793 13.898 107.037 13.478C106.281 13.058 105.687 12.482 105.255 11.75C104.835 11.006 104.625 10.166 104.625 9.23C104.625 8.294 104.835 7.46 105.255 6.728C105.687 5.984 106.281 5.408 107.037 5C107.793 4.58 108.645 4.37 109.593 4.37C110.541 4.37 111.387 4.58 112.131 5C112.887 5.408 113.475 5.984 113.895 6.728C114.327 7.46 114.543 8.294 114.543 9.23C114.543 10.166 114.327 11.006 113.895 11.75C113.475 12.482 112.887 13.058 112.131 13.478C111.387 13.898 110.541 14.108 109.593 14.108ZM109.593 12.596C110.205 12.596 110.751 12.458 111.231 12.182C111.723 11.894 112.107 11.498 112.383 10.994C112.659 10.478 112.797 9.89 112.797 9.23C112.797 8.57 112.659 7.988 112.383 7.484C112.107 6.968 111.723 6.572 111.231 6.296C110.751 6.02 110.205 5.882 109.593 5.882C108.981 5.882 108.429 6.02 107.937 6.296C107.457 6.572 107.073 6.968 106.785 7.484C106.509 7.988 106.371 8.57 106.371 9.23C106.371 9.89 106.509 10.478 106.785 10.994C107.073 11.498 107.457 11.894 107.937 12.182C108.429 12.458 108.981 12.596 109.593 12.596ZM118.589 6.062C118.889 5.51 119.333 5.09 119.921 4.802C120.509 4.514 121.223 4.37 122.063 4.37V6.044C121.967 6.032 121.835 6.026 121.667 6.026C120.731 6.026 119.993 6.308 119.453 6.872C118.925 7.424 118.661 8.216 118.661 9.248V14H116.933V4.46H118.589V6.062ZM129.943 13.442C129.691 13.658 129.379 13.826 129.007 13.946C128.635 14.054 128.251 14.108 127.855 14.108C126.895 14.108 126.151 13.85 125.623 13.334C125.095 12.818 124.831 12.08 124.831 11.12V5.882H123.211V4.46H124.831V2.372H126.559V4.46H129.295V5.882H126.559V11.048C126.559 11.564 126.685 11.96 126.937 12.236C127.201 12.512 127.573 12.65 128.053 12.65C128.581 12.65 129.031 12.5 129.403 12.2L129.943 13.442Z" fill="#F8F8F8"/>
<path d="M139.945 3.992L142.087 5.198L141.529 6.188L139.351 4.91L139.369 7.358H138.289L138.307 4.91L136.129 6.188L135.571 5.198L137.731 3.992L135.571 2.804L136.129 1.796L138.307 3.074L138.289 0.643999H139.369L139.351 3.074L141.529 1.796L142.087 2.804L139.945 3.992Z" fill="#EB5757"/>
</svg>
