<svg width="96" height="15" viewBox="0 0 96 15" fill="none" xmlns="http://www.w3.org/2000/svg">
<path d="M5.562 14.144C4.614 14.144 3.696 14 2.808 13.712C1.932 13.412 1.242 13.028 0.738 12.56L1.404 11.156C1.884 11.588 2.496 11.942 3.24 12.218C3.996 12.482 4.77 12.614 5.562 12.614C6.606 12.614 7.386 12.44 7.902 12.092C8.418 11.732 8.676 11.258 8.676 10.67C8.676 10.238 8.532 9.89 8.244 9.626C7.968 9.35 7.62 9.14 7.2 8.996C6.792 8.852 6.21 8.69 5.454 8.51C4.506 8.282 3.738 8.054 3.15 7.826C2.574 7.598 2.076 7.25 1.656 6.782C1.248 6.302 1.044 5.66 1.044 4.856C1.044 4.184 1.218 3.578 1.566 3.038C1.926 2.498 2.466 2.066 3.186 1.742C3.906 1.418 4.8 1.256 5.868 1.256C6.612 1.256 7.344 1.352 8.064 1.544C8.784 1.736 9.402 2.012 9.918 2.372L9.324 3.812C8.796 3.476 8.232 3.224 7.632 3.056C7.032 2.876 6.444 2.786 5.868 2.786C4.848 2.786 4.08 2.972 3.564 3.344C3.06 3.716 2.808 4.196 2.808 4.784C2.808 5.216 2.952 5.57 3.24 5.846C3.528 6.11 3.882 6.32 4.302 6.476C4.734 6.62 5.316 6.776 6.048 6.944C6.996 7.172 7.758 7.4 8.334 7.628C8.91 7.856 9.402 8.204 9.81 8.672C10.23 9.14 10.44 9.77 10.44 10.562C10.44 11.222 10.26 11.828 9.9 12.38C9.54 12.92 8.994 13.352 8.262 13.676C7.53 13.988 6.63 14.144 5.562 14.144ZM21.7097 4.46V14H20.0717V12.56C19.7237 13.052 19.2617 13.436 18.6857 13.712C18.1217 13.976 17.5037 14.108 16.8317 14.108C15.5597 14.108 14.5577 13.76 13.8257 13.064C13.0937 12.356 12.7277 11.318 12.7277 9.95V4.46H14.4557V9.752C14.4557 10.676 14.6777 11.378 15.1217 11.858C15.5657 12.326 16.2017 12.56 17.0297 12.56C17.9417 12.56 18.6617 12.284 19.1897 11.732C19.7177 11.18 19.9817 10.4 19.9817 9.392V4.46H21.7097ZM26.6553 6.062C26.9553 5.51 27.3993 5.09 27.9873 4.802C28.5753 4.514 29.2893 4.37 30.1293 4.37V6.044C30.0333 6.032 29.9013 6.026 29.7333 6.026C28.7973 6.026 28.0593 6.308 27.5193 6.872C26.9913 7.424 26.7273 8.216 26.7273 9.248V14H24.9993V4.46H26.6553V6.062ZM37.3531 4.37C38.5651 4.37 39.5251 4.724 40.2331 5.432C40.9531 6.128 41.3131 7.154 41.3131 8.51V14H39.5851V8.708C39.5851 7.784 39.3631 7.088 38.9191 6.62C38.4751 6.152 37.8391 5.918 37.0111 5.918C36.0751 5.918 35.3371 6.194 34.7971 6.746C34.2571 7.286 33.9871 8.066 33.9871 9.086V14H32.2591V4.46H33.9151V5.9C34.2631 5.408 34.7311 5.03 35.3191 4.766C35.9191 4.502 36.5971 4.37 37.3531 4.37ZM47.985 4.37C49.305 4.37 50.313 4.694 51.009 5.342C51.717 5.99 52.071 6.956 52.071 8.24V14H50.433V12.74C50.145 13.184 49.731 13.526 49.191 13.766C48.663 13.994 48.033 14.108 47.301 14.108C46.233 14.108 45.375 13.85 44.727 13.334C44.091 12.818 43.773 12.14 43.773 11.3C43.773 10.46 44.079 9.788 44.691 9.284C45.303 8.768 46.275 8.51 47.607 8.51H50.343V8.168C50.343 7.424 50.127 6.854 49.695 6.458C49.263 6.062 48.627 5.864 47.787 5.864C47.223 5.864 46.671 5.96 46.131 6.152C45.591 6.332 45.135 6.578 44.763 6.89L44.043 5.594C44.535 5.198 45.123 4.898 45.807 4.694C46.491 4.478 47.217 4.37 47.985 4.37ZM47.589 12.776C48.249 12.776 48.819 12.632 49.299 12.344C49.779 12.044 50.127 11.624 50.343 11.084V9.752H47.679C46.215 9.752 45.483 10.244 45.483 11.228C45.483 11.708 45.669 12.086 46.041 12.362C46.413 12.638 46.929 12.776 47.589 12.776ZM67.2029 4.37C68.4029 4.37 69.3509 4.718 70.0469 5.414C70.7549 6.11 71.1089 7.142 71.1089 8.51V14H69.3809V8.708C69.3809 7.784 69.1649 7.088 68.7329 6.62C68.3129 6.152 67.7069 5.918 66.9149 5.918C66.0389 5.918 65.3429 6.194 64.8269 6.746C64.3109 7.286 64.0529 8.066 64.0529 9.086V14H62.3249V8.708C62.3249 7.784 62.1089 7.088 61.6769 6.62C61.2569 6.152 60.6509 5.918 59.8589 5.918C58.9829 5.918 58.2869 6.194 57.7709 6.746C57.2549 7.286 56.9969 8.066 56.9969 9.086V14H55.2689V4.46H56.9249V5.882C57.2729 5.39 57.7289 5.018 58.2929 4.766C58.8569 4.502 59.4989 4.37 60.2189 4.37C60.9629 4.37 61.6229 4.52 62.1989 4.82C62.7749 5.12 63.2189 5.558 63.5309 6.134C63.8909 5.582 64.3889 5.15 65.0249 4.838C65.6729 4.526 66.3989 4.37 67.2029 4.37ZM82.9631 9.284C82.9631 9.416 82.9511 9.59 82.9271 9.806H75.1871C75.2951 10.646 75.6611 11.324 76.2851 11.84C76.9211 12.344 77.7071 12.596 78.6431 12.596C79.7831 12.596 80.7011 12.212 81.3971 11.444L82.3511 12.56C81.9191 13.064 81.3791 13.448 80.7311 13.712C80.0951 13.976 79.3811 14.108 78.5891 14.108C77.5811 14.108 76.6871 13.904 75.9071 13.496C75.1271 13.076 74.5211 12.494 74.0891 11.75C73.6691 11.006 73.4591 10.166 73.4591 9.23C73.4591 8.306 73.6631 7.472 74.0711 6.728C74.4911 5.984 75.0611 5.408 75.7811 5C76.5131 4.58 77.3351 4.37 78.2471 4.37C79.1591 4.37 79.9691 4.58 80.6771 5C81.3971 5.408 81.9551 5.984 82.3511 6.728C82.7591 7.472 82.9631 8.324 82.9631 9.284ZM78.2471 5.828C77.4191 5.828 76.7231 6.08 76.1591 6.584C75.6071 7.088 75.2831 7.748 75.1871 8.564H81.3071C81.2111 7.76 80.8811 7.106 80.3171 6.602C79.7651 6.086 79.0751 5.828 78.2471 5.828Z" fill="#F8F8F8"/>
<path d="M93.2746 3.992L95.4166 5.198L94.8586 6.188L92.6806 4.91L92.6986 7.358H91.6186L91.6366 4.91L89.4586 6.188L88.9006 5.198L91.0606 3.992L88.9006 2.804L89.4586 1.796L91.6366 3.074L91.6186 0.643999H92.6986L92.6806 3.074L94.8586 1.796L95.4166 2.804L93.2746 3.992Z" fill="#EB5757"/>
</svg>
