<svg width="222" height="231" viewBox="0 0 222 231" fill="none" xmlns="http://www.w3.org/2000/svg">
<rect width="222" height="230.222" rx="4.11111" fill="#C4C4C4"/>
<path d="M89.5923 40.375C80.0319 47.4738 77.463 58.7135 77.9335 64.6949C78.5357 72.0096 80.0225 81.531 80.0225 81.531C80.0225 81.531 77.0772 83.1272 77.0772 89.5499C78.1028 105.672 83.5041 98.7145 84.6145 105.785C87.2869 122.818 93.3939 119.785 93.3939 129.081C93.3939 144.565 86.9952 151.805 67.018 160.387C46.975 169.007 26.3109 179.853 26.3109 198.632V208.022H195.689V198.632C195.689 179.853 175.015 169.007 154.963 160.397C134.986 151.814 128.606 144.584 128.606 129.091C128.606 119.795 134.694 122.828 137.376 105.794C138.495 98.7239 143.887 105.682 144.932 89.5593C144.932 83.1366 141.977 81.5404 141.977 81.5404C141.977 81.5404 143.464 72.019 144.057 64.7043C144.668 57.0327 140.312 40.6567 122.414 35.6331C119.28 32.4406 117.163 27.3606 126.799 22.2619C105.721 21.276 100.818 32.2809 89.5923 40.375Z" fill="black" fill-opacity="0.1"/>
</svg>
